<mxfile host="app.diagrams.net" agent="Mozilla/5.0 (Windows NT 10.0; Win64; x64) AppleWebKit/537.36 (KHTML, like Gecko) Chrome/129.0.0.0 Safari/537.36 Edg/129.0.0.0" locked="false" version="24.7.12" pages="6">
  <diagram id="mQ0tszXhraVJWzRrXD9Y" name="especificações">
    <mxGraphModel dx="1434" dy="827" grid="0" gridSize="10" guides="1" tooltips="1" connect="1" arrows="1" fold="1" page="1" pageScale="1" pageWidth="827" pageHeight="1169" math="0" shadow="0">
      <root>
        <mxCell id="0" />
        <mxCell id="1" parent="0" />
        <mxCell id="stBPdV0KiszwC9-meFuj-2" value="&lt;h1 style=&quot;margin-top: 0px; font-size: 21px;&quot;&gt;&lt;i&gt;SITE MARCIA 2&lt;/i&gt;&lt;/h1&gt;&lt;p style=&quot;font-size: 21px;&quot;&gt;&lt;/p&gt;&lt;ul style=&quot;font-size: 14px;&quot;&gt;&lt;li style=&quot;text-align: left;&quot;&gt;divulgação de obras&lt;/li&gt;&lt;li style=&quot;text-align: left;&quot;&gt;faciltar contato&lt;/li&gt;&lt;li style=&quot;text-align: left;&quot;&gt;gerenciamento pelo usuario&lt;/li&gt;&lt;li style=&quot;text-align: left;&quot;&gt;&lt;br style=&quot;&quot;&gt;&lt;/li&gt;&lt;/ul&gt;&lt;p style=&quot;font-size: 21px;&quot;&gt;&lt;/p&gt;&lt;p style=&quot;font-size: 21px;&quot;&gt;&lt;br style=&quot;font-size: 21px;&quot;&gt;&lt;/p&gt;" style="text;html=1;whiteSpace=wrap;overflow=hidden;rounded=0;fillColor=#1ba1e2;strokeColor=#0067A3;fontColor=#ffffff;align=center;fontSize=21;" parent="1" vertex="1">
          <mxGeometry x="10" y="20" width="807" height="133" as="geometry" />
        </mxCell>
        <mxCell id="stBPdV0KiszwC9-meFuj-3" value="&lt;h1 style=&quot;margin-top: 0px;&quot;&gt;facilidades&lt;/h1&gt;&lt;p&gt;&lt;/p&gt;&lt;ul&gt;&lt;li&gt;SORTEAR OBRAS POR DATAS&lt;/li&gt;&lt;li&gt;SORTEAR OBRAS POR VALOR&lt;/li&gt;&lt;li&gt;GERAR RELATORIOS&lt;/li&gt;&lt;li&gt;&lt;br&gt;&lt;/li&gt;&lt;/ul&gt;&lt;p&gt;&lt;/p&gt;&lt;p&gt;.&lt;/p&gt;" style="text;html=1;whiteSpace=wrap;overflow=hidden;rounded=0;" parent="1" vertex="1">
          <mxGeometry x="558" y="156" width="255" height="182" as="geometry" />
        </mxCell>
        <mxCell id="stBPdV0KiszwC9-meFuj-4" value="&lt;h1 style=&quot;margin-top: 0px;&quot;&gt;constituição&lt;/h1&gt;&lt;p&gt;&lt;/p&gt;&lt;ul&gt;&lt;li&gt;pagina home&lt;/li&gt;&lt;ul&gt;&lt;li&gt;admin&lt;/li&gt;&lt;li&gt;exposições&lt;/li&gt;&lt;li&gt;obras&lt;/li&gt;&lt;li&gt;sobre&lt;/li&gt;&lt;li&gt;contato&lt;/li&gt;&lt;li&gt;cv&lt;/li&gt;&lt;/ul&gt;&lt;li&gt;pagina administrador ( acessível através da barra ender /ADM)&lt;/li&gt;&lt;ul&gt;&lt;li&gt;CONFIGURAÇÕES&lt;/li&gt;&lt;ul&gt;&lt;li&gt;trocar cores&lt;/li&gt;&lt;li&gt;trocar fundo&lt;/li&gt;&lt;li&gt;trocar fotos por fotos externas&lt;/li&gt;&lt;/ul&gt;&lt;li&gt;USUARIOS&lt;/li&gt;&lt;ul&gt;&lt;li&gt;nome&lt;/li&gt;&lt;li&gt;e-mail&lt;/li&gt;&lt;li&gt;telefone&lt;/li&gt;&lt;li&gt;redes sociais&lt;/li&gt;&lt;li&gt;privilégios&lt;/li&gt;&lt;/ul&gt;&lt;li&gt;OBRAS&lt;/li&gt;&lt;ul&gt;&lt;li&gt;tipo&lt;/li&gt;&lt;li&gt;material&lt;/li&gt;&lt;li&gt;método de construção&lt;/li&gt;&lt;li&gt;data&lt;/li&gt;&lt;li&gt;local&lt;/li&gt;&lt;li&gt;descrição&lt;/li&gt;&lt;li&gt;imagens&lt;/li&gt;&lt;/ul&gt;&lt;li&gt;EXPOSIÇÕES&lt;/li&gt;&lt;ul&gt;&lt;li&gt;data&lt;/li&gt;&lt;li&gt;local&lt;/li&gt;&lt;li&gt;obras&lt;/li&gt;&lt;li&gt;imagens das obras&lt;/li&gt;&lt;li&gt;imagens das exposições&lt;/li&gt;&lt;li&gt;disponibilidade da exposição&lt;/li&gt;&lt;/ul&gt;&lt;li&gt;STATUS_OBRAS&lt;/li&gt;&lt;ul&gt;&lt;li&gt;disponibilidade&lt;/li&gt;&lt;/ul&gt;&lt;li&gt;IMPRENSA/MIDIA&lt;/li&gt;&lt;ul&gt;&lt;li&gt;jornais&lt;/li&gt;&lt;li&gt;entrevistas&lt;/li&gt;&lt;li&gt;posts&lt;/li&gt;&lt;li&gt;citações&lt;/li&gt;&lt;/ul&gt;&lt;li&gt;ACESSOS&lt;/li&gt;&lt;/ul&gt;&lt;li&gt;exposições&lt;/li&gt;&lt;ul&gt;&lt;li&gt;linha do tempo&lt;/li&gt;&lt;li&gt;paginas&lt;/li&gt;&lt;/ul&gt;&lt;li&gt;&lt;br&gt;&lt;/li&gt;&lt;li&gt;sobre&lt;/li&gt;&lt;li&gt;contato&lt;/li&gt;&lt;li&gt;CV&amp;nbsp;&lt;/li&gt;&lt;li&gt;&lt;br&gt;&lt;/li&gt;&lt;/ul&gt;&lt;p&gt;&lt;/p&gt;" style="text;html=1;whiteSpace=wrap;overflow=hidden;rounded=0;" parent="1" vertex="1">
          <mxGeometry x="10" y="158" width="410" height="840" as="geometry" />
        </mxCell>
        <mxCell id="i4fVcNMOQb9B2aigwCRN-1" value="&lt;h1 style=&quot;margin-top: 0px;&quot;&gt;LINGUAS?&lt;/h1&gt;&lt;p&gt;&lt;/p&gt;&lt;ul&gt;&lt;li&gt;PORTUGUES&lt;/li&gt;&lt;li&gt;INGLES&lt;/li&gt;&lt;li&gt;ESPANHOL&lt;/li&gt;&lt;/ul&gt;&lt;p&gt;&lt;/p&gt;" style="text;html=1;whiteSpace=wrap;overflow=hidden;rounded=0;" parent="1" vertex="1">
          <mxGeometry x="510" y="520" width="180" height="140" as="geometry" />
        </mxCell>
      </root>
    </mxGraphModel>
  </diagram>
  <diagram id="QIfLNEwKlwPrDaFYnYX5" name="bancos de dados">
    <mxGraphModel dx="2049" dy="2350" grid="0" gridSize="10" guides="1" tooltips="1" connect="1" arrows="1" fold="1" page="1" pageScale="1" pageWidth="827" pageHeight="1169" background="#FFE6CC" math="0" shadow="1">
      <root>
        <mxCell id="0" />
        <mxCell id="1" parent="0" />
        <mxCell id="9hYV8KY08thifQP5Q2E_-1" value="obras" style="shape=cylinder3;whiteSpace=wrap;html=1;boundedLbl=1;backgroundOutline=1;size=15;" parent="1" vertex="1">
          <mxGeometry x="77" y="-690" width="110" height="120" as="geometry" />
        </mxCell>
        <mxCell id="9hYV8KY08thifQP5Q2E_-2" value="exposições" style="shape=cylinder3;whiteSpace=wrap;html=1;boundedLbl=1;backgroundOutline=1;size=15;" parent="1" vertex="1">
          <mxGeometry x="627" y="-685" width="100" height="110" as="geometry" />
        </mxCell>
        <mxCell id="9hYV8KY08thifQP5Q2E_-3" value="usuarios" style="shape=cylinder3;whiteSpace=wrap;html=1;boundedLbl=1;backgroundOutline=1;size=15;" parent="1" vertex="1">
          <mxGeometry x="69" y="-1046" width="160" height="180" as="geometry" />
        </mxCell>
        <mxCell id="9hYV8KY08thifQP5Q2E_-4" value="locais de exposição" style="shape=cylinder3;whiteSpace=wrap;html=1;boundedLbl=1;backgroundOutline=1;size=15;" parent="1" vertex="1">
          <mxGeometry x="642" y="-450" width="70" height="80" as="geometry" />
        </mxCell>
        <mxCell id="B2mqSH4LbVCd4sdCwH40-1" style="edgeStyle=orthogonalEdgeStyle;rounded=0;orthogonalLoop=1;jettySize=auto;html=1;exitX=1;exitY=0.5;exitDx=0;exitDy=0;exitPerimeter=0;entryX=0;entryY=0.5;entryDx=0;entryDy=0;entryPerimeter=0;" edge="1" parent="1" source="9hYV8KY08thifQP5Q2E_-1" target="9hYV8KY08thifQP5Q2E_-2">
          <mxGeometry relative="1" as="geometry" />
        </mxCell>
        <mxCell id="B2mqSH4LbVCd4sdCwH40-2" style="edgeStyle=orthogonalEdgeStyle;rounded=0;orthogonalLoop=1;jettySize=auto;html=1;exitX=0.5;exitY=0;exitDx=0;exitDy=0;exitPerimeter=0;entryX=0.5;entryY=1;entryDx=0;entryDy=0;entryPerimeter=0;" edge="1" parent="1" source="9hYV8KY08thifQP5Q2E_-4" target="9hYV8KY08thifQP5Q2E_-2">
          <mxGeometry relative="1" as="geometry" />
        </mxCell>
        <mxCell id="B2mqSH4LbVCd4sdCwH40-3" value="posts" style="shape=cylinder3;whiteSpace=wrap;html=1;boundedLbl=1;backgroundOutline=1;size=15;" vertex="1" parent="1">
          <mxGeometry x="69" y="-356" width="110" height="120" as="geometry" />
        </mxCell>
        <mxCell id="B2mqSH4LbVCd4sdCwH40-4" value="coleções" style="shape=cylinder3;whiteSpace=wrap;html=1;boundedLbl=1;backgroundOutline=1;size=15;" vertex="1" parent="1">
          <mxGeometry x="257" y="-510" width="110" height="120" as="geometry" />
        </mxCell>
        <mxCell id="B2mqSH4LbVCd4sdCwH40-5" style="edgeStyle=orthogonalEdgeStyle;rounded=0;orthogonalLoop=1;jettySize=auto;html=1;entryX=0;entryY=0.5;entryDx=0;entryDy=0;entryPerimeter=0;" edge="1" parent="1" source="9hYV8KY08thifQP5Q2E_-1" target="B2mqSH4LbVCd4sdCwH40-4">
          <mxGeometry relative="1" as="geometry">
            <Array as="points">
              <mxPoint x="147" y="-450" />
            </Array>
          </mxGeometry>
        </mxCell>
        <mxCell id="B2mqSH4LbVCd4sdCwH40-6" style="edgeStyle=orthogonalEdgeStyle;rounded=0;orthogonalLoop=1;jettySize=auto;html=1;exitX=1;exitY=0;exitDx=0;exitDy=37.5;exitPerimeter=0;entryX=0;entryY=0.591;entryDx=0;entryDy=0;entryPerimeter=0;" edge="1" parent="1" source="B2mqSH4LbVCd4sdCwH40-4" target="9hYV8KY08thifQP5Q2E_-2">
          <mxGeometry relative="1" as="geometry" />
        </mxCell>
        <mxCell id="B2mqSH4LbVCd4sdCwH40-7" value="noticias e recortes" style="shape=cylinder3;whiteSpace=wrap;html=1;boundedLbl=1;backgroundOutline=1;size=15;" vertex="1" parent="1">
          <mxGeometry x="69" y="-197" width="110" height="120" as="geometry" />
        </mxCell>
      </root>
    </mxGraphModel>
  </diagram>
  <diagram name="adm_base" id="AS8VF71rTimH4_xN1MAq">
    <mxGraphModel dx="3860" dy="2441" grid="1" gridSize="10" guides="1" tooltips="1" connect="1" arrows="1" fold="1" page="1" pageScale="1" pageWidth="827" pageHeight="1169" math="0" shadow="0">
      <root>
        <mxCell id="Nosn6NrlCCjQIWyMCC49-0" />
        <mxCell id="Nosn6NrlCCjQIWyMCC49-1" parent="Nosn6NrlCCjQIWyMCC49-0" />
        <mxCell id="Nosn6NrlCCjQIWyMCC49-2" value="" style="group;glass=0;" parent="Nosn6NrlCCjQIWyMCC49-1" vertex="1" connectable="0">
          <mxGeometry x="-1340" y="-260" width="1930" height="1080" as="geometry" />
        </mxCell>
        <mxCell id="Nosn6NrlCCjQIWyMCC49-3" value="" style="rounded=0;whiteSpace=wrap;html=1;" parent="Nosn6NrlCCjQIWyMCC49-2" vertex="1">
          <mxGeometry width="1930" height="1080" as="geometry" />
        </mxCell>
        <mxCell id="Nosn6NrlCCjQIWyMCC49-4" value="" style="rounded=0;whiteSpace=wrap;html=1;fillColor=#FFF1D1;strokeColor=none;" parent="Nosn6NrlCCjQIWyMCC49-2" vertex="1">
          <mxGeometry y="5" width="300" height="1075" as="geometry" />
        </mxCell>
        <mxCell id="Nosn6NrlCCjQIWyMCC49-5" value="" style="ellipse;whiteSpace=wrap;html=1;strokeColor=none;" parent="Nosn6NrlCCjQIWyMCC49-2" vertex="1">
          <mxGeometry x="50" y="75" width="180" height="220" as="geometry" />
        </mxCell>
        <mxCell id="Nosn6NrlCCjQIWyMCC49-6" value="titulo" style="rounded=0;whiteSpace=wrap;html=1;fontStyle=3;fontSize=34;fontColor=default;labelBackgroundColor=none;strokeColor=none;" parent="Nosn6NrlCCjQIWyMCC49-2" vertex="1">
          <mxGeometry x="50" y="325" width="190" height="35" as="geometry" />
        </mxCell>
        <mxCell id="VgzzIIzL1tHp7LyDuIpn-0" value="" style="rounded=0;whiteSpace=wrap;html=1;fillColor=#FFF1D1;strokeColor=none;" parent="Nosn6NrlCCjQIWyMCC49-2" vertex="1">
          <mxGeometry x="300" y="5" width="1630" height="60" as="geometry" />
        </mxCell>
        <mxCell id="U51X6f_HZJbw50okrPlx-2" value="voltar" style="html=1;shadow=0;dashed=0;shape=mxgraph.bootstrap.rrect;rSize=5;strokeColor=none;strokeWidth=1;fillColor=#FFAB4A;fontColor=#FFFFFF;whiteSpace=wrap;align=center;verticalAlign=middle;spacingLeft=0;fontStyle=0;fontSize=16;spacing=5;" vertex="1" parent="Nosn6NrlCCjQIWyMCC49-2">
          <mxGeometry x="343" y="15" width="170" height="40" as="geometry" />
        </mxCell>
        <mxCell id="U51X6f_HZJbw50okrPlx-3" value="sair" style="html=1;shadow=0;dashed=0;shape=mxgraph.bootstrap.rrect;rSize=5;strokeColor=none;strokeWidth=1;fillColor=#DB704F;fontColor=#FFFFFF;whiteSpace=wrap;align=center;verticalAlign=middle;spacingLeft=0;fontStyle=0;fontSize=16;spacing=5;" vertex="1" parent="Nosn6NrlCCjQIWyMCC49-2">
          <mxGeometry x="40" y="1010" width="180" height="40" as="geometry" />
        </mxCell>
        <mxCell id="U51X6f_HZJbw50okrPlx-6" value="home" style="html=1;shadow=1;dashed=0;shape=mxgraph.bootstrap.rrect;rSize=5;strokeColor=none;strokeWidth=1;fillColor=#FFE6A1;fontColor=#994C00;whiteSpace=wrap;align=center;verticalAlign=middle;spacingLeft=0;fontStyle=0;fontSize=16;spacing=5;gradientColor=none;" vertex="1" parent="Nosn6NrlCCjQIWyMCC49-2">
          <mxGeometry x="50" y="410" width="180" height="40" as="geometry" />
        </mxCell>
        <mxCell id="U51X6f_HZJbw50okrPlx-7" value="usuarios" style="html=1;shadow=1;dashed=0;shape=mxgraph.bootstrap.rrect;rSize=5;strokeColor=none;strokeWidth=1;fillColor=#FFE6A1;fontColor=#994C00;whiteSpace=wrap;align=center;verticalAlign=middle;spacingLeft=0;fontStyle=0;fontSize=16;spacing=5;gradientColor=none;" vertex="1" parent="Nosn6NrlCCjQIWyMCC49-2">
          <mxGeometry x="50" y="475" width="180" height="40" as="geometry" />
        </mxCell>
        <mxCell id="EwsN5DAZOoXDy4nIlVh4-0" value="obras" style="html=1;shadow=1;dashed=0;shape=mxgraph.bootstrap.rrect;rSize=5;strokeColor=none;strokeWidth=1;fillColor=#FFE6A1;fontColor=#994C00;whiteSpace=wrap;align=center;verticalAlign=middle;spacingLeft=0;fontStyle=0;fontSize=16;spacing=5;gradientColor=none;" vertex="1" parent="Nosn6NrlCCjQIWyMCC49-2">
          <mxGeometry x="50" y="555" width="180" height="40" as="geometry" />
        </mxCell>
        <mxCell id="EwsN5DAZOoXDy4nIlVh4-1" value="exposições" style="html=1;shadow=1;dashed=0;shape=mxgraph.bootstrap.rrect;rSize=5;strokeColor=none;strokeWidth=1;fillColor=#FFE6A1;fontColor=#994C00;whiteSpace=wrap;align=center;verticalAlign=middle;spacingLeft=0;fontStyle=0;fontSize=16;spacing=5;gradientColor=none;" vertex="1" parent="Nosn6NrlCCjQIWyMCC49-2">
          <mxGeometry x="50" y="625" width="180" height="40" as="geometry" />
        </mxCell>
        <mxCell id="EwsN5DAZOoXDy4nIlVh4-2" value="posts" style="html=1;shadow=1;dashed=0;shape=mxgraph.bootstrap.rrect;rSize=5;strokeColor=none;strokeWidth=1;fillColor=#FFE6A1;fontColor=#994C00;whiteSpace=wrap;align=center;verticalAlign=middle;spacingLeft=0;fontStyle=0;fontSize=16;spacing=5;gradientColor=none;" vertex="1" parent="Nosn6NrlCCjQIWyMCC49-2">
          <mxGeometry x="50" y="695" width="180" height="40" as="geometry" />
        </mxCell>
        <mxCell id="ejH4ofJpQRC6ctBhdKgF-0" value="midia" style="html=1;shadow=1;dashed=0;shape=mxgraph.bootstrap.rrect;rSize=5;strokeColor=none;strokeWidth=1;fillColor=#FFE6A1;fontColor=#994C00;whiteSpace=wrap;align=center;verticalAlign=middle;spacingLeft=0;fontStyle=0;fontSize=16;spacing=5;gradientColor=none;" vertex="1" parent="Nosn6NrlCCjQIWyMCC49-2">
          <mxGeometry x="50" y="760" width="180" height="40" as="geometry" />
        </mxCell>
        <mxCell id="ejH4ofJpQRC6ctBhdKgF-3" value="configruações" style="html=1;shadow=1;dashed=0;shape=mxgraph.bootstrap.rrect;rSize=5;strokeColor=none;strokeWidth=1;fillColor=#FFE6A1;fontColor=#994C00;whiteSpace=wrap;align=center;verticalAlign=middle;spacingLeft=0;fontStyle=0;fontSize=16;spacing=5;gradientColor=none;" vertex="1" parent="Nosn6NrlCCjQIWyMCC49-2">
          <mxGeometry x="50" y="825" width="180" height="40" as="geometry" />
        </mxCell>
        <mxCell id="ejH4ofJpQRC6ctBhdKgF-4" value="avançar" style="html=1;shadow=0;dashed=0;shape=mxgraph.bootstrap.rrect;rSize=5;strokeColor=none;strokeWidth=1;fillColor=#FFAB4A;fontColor=#FFFFFF;whiteSpace=wrap;align=center;verticalAlign=middle;spacingLeft=0;fontStyle=0;fontSize=16;spacing=5;" vertex="1" parent="Nosn6NrlCCjQIWyMCC49-2">
          <mxGeometry x="1720" y="15" width="170" height="40" as="geometry" />
        </mxCell>
        <mxCell id="Mk-rzLahUOcg8_m-blpH-0" value="home" style="html=1;shadow=1;dashed=0;shape=mxgraph.bootstrap.rrect;rSize=5;strokeColor=#6F0000;strokeWidth=1;fillColor=#a20025;fontColor=#ffffff;whiteSpace=wrap;align=center;verticalAlign=middle;spacingLeft=0;fontStyle=0;fontSize=16;spacing=5;" vertex="1" parent="Nosn6NrlCCjQIWyMCC49-2">
          <mxGeometry x="420" y="410" width="180" height="40" as="geometry" />
        </mxCell>
      </root>
    </mxGraphModel>
  </diagram>
  <diagram name="adm_OBRAS" id="Rmz9GdD6GBrENUc9ML02">
    <mxGraphModel dx="2979" dy="1944" grid="1" gridSize="10" guides="1" tooltips="1" connect="1" arrows="1" fold="1" page="1" pageScale="1" pageWidth="827" pageHeight="1169" math="0" shadow="0">
      <root>
        <mxCell id="nnnGRKQF1L4pYrHhvQn5-0" />
        <mxCell id="nnnGRKQF1L4pYrHhvQn5-1" parent="nnnGRKQF1L4pYrHhvQn5-0" />
        <mxCell id="nnnGRKQF1L4pYrHhvQn5-2" value="" style="group;glass=0;" vertex="1" connectable="0" parent="nnnGRKQF1L4pYrHhvQn5-1">
          <mxGeometry x="-1400" y="-270" width="1630" height="1080" as="geometry" />
        </mxCell>
        <mxCell id="nnnGRKQF1L4pYrHhvQn5-4" value="" style="rounded=0;whiteSpace=wrap;html=1;fillColor=#FFF1D1;strokeColor=none;" vertex="1" parent="nnnGRKQF1L4pYrHhvQn5-2">
          <mxGeometry y="5" width="253.3678756476684" height="1075" as="geometry" />
        </mxCell>
        <mxCell id="nnnGRKQF1L4pYrHhvQn5-5" value="" style="ellipse;whiteSpace=wrap;html=1;strokeColor=none;" vertex="1" parent="nnnGRKQF1L4pYrHhvQn5-2">
          <mxGeometry x="42.2279792746114" y="75" width="152.02072538860105" height="220" as="geometry" />
        </mxCell>
        <mxCell id="nnnGRKQF1L4pYrHhvQn5-6" value="titulo" style="rounded=0;whiteSpace=wrap;html=1;fontStyle=3;fontSize=34;fontColor=default;labelBackgroundColor=none;strokeColor=none;" vertex="1" parent="nnnGRKQF1L4pYrHhvQn5-2">
          <mxGeometry x="42.2279792746114" y="325" width="160.4663212435233" height="35" as="geometry" />
        </mxCell>
        <mxCell id="nnnGRKQF1L4pYrHhvQn5-7" value="" style="rounded=0;whiteSpace=wrap;html=1;fillColor=#FFF1D1;strokeColor=none;" vertex="1" parent="nnnGRKQF1L4pYrHhvQn5-2">
          <mxGeometry x="253.37" y="5" width="1026.63" height="60" as="geometry" />
        </mxCell>
        <mxCell id="nnnGRKQF1L4pYrHhvQn5-8" value="voltar" style="html=1;shadow=0;dashed=0;shape=mxgraph.bootstrap.rrect;rSize=5;strokeColor=none;strokeWidth=1;fillColor=#FFAB4A;fontColor=#FFFFFF;whiteSpace=wrap;align=center;verticalAlign=middle;spacingLeft=0;fontStyle=0;fontSize=16;spacing=5;" vertex="1" parent="nnnGRKQF1L4pYrHhvQn5-2">
          <mxGeometry x="289.6839378238342" y="15" width="143.57512953367876" height="40" as="geometry" />
        </mxCell>
        <mxCell id="nnnGRKQF1L4pYrHhvQn5-9" value="sair" style="html=1;shadow=0;dashed=0;shape=mxgraph.bootstrap.rrect;rSize=5;strokeColor=none;strokeWidth=1;fillColor=#DB704F;fontColor=#FFFFFF;whiteSpace=wrap;align=center;verticalAlign=middle;spacingLeft=0;fontStyle=0;fontSize=16;spacing=5;" vertex="1" parent="nnnGRKQF1L4pYrHhvQn5-2">
          <mxGeometry x="33.78238341968912" y="1010" width="152.02072538860105" height="40" as="geometry" />
        </mxCell>
        <mxCell id="nnnGRKQF1L4pYrHhvQn5-10" value="home" style="html=1;shadow=1;dashed=0;shape=mxgraph.bootstrap.rrect;rSize=5;strokeColor=none;strokeWidth=1;fillColor=#FFE6A1;fontColor=#994C00;whiteSpace=wrap;align=center;verticalAlign=middle;spacingLeft=0;fontStyle=0;fontSize=16;spacing=5;gradientColor=none;" vertex="1" parent="nnnGRKQF1L4pYrHhvQn5-2">
          <mxGeometry x="42.2279792746114" y="410" width="152.02072538860105" height="40" as="geometry" />
        </mxCell>
        <mxCell id="nnnGRKQF1L4pYrHhvQn5-11" value="usuarios" style="html=1;shadow=1;dashed=0;shape=mxgraph.bootstrap.rrect;rSize=5;strokeColor=none;strokeWidth=1;fillColor=#FFE6A1;fontColor=#994C00;whiteSpace=wrap;align=center;verticalAlign=middle;spacingLeft=0;fontStyle=0;fontSize=16;spacing=5;gradientColor=none;" vertex="1" parent="nnnGRKQF1L4pYrHhvQn5-2">
          <mxGeometry x="42.2279792746114" y="475" width="152.02072538860105" height="40" as="geometry" />
        </mxCell>
        <mxCell id="nnnGRKQF1L4pYrHhvQn5-13" value="exposições" style="html=1;shadow=1;dashed=0;shape=mxgraph.bootstrap.rrect;rSize=5;strokeColor=none;strokeWidth=1;fillColor=#FFE6A1;fontColor=#994C00;whiteSpace=wrap;align=center;verticalAlign=middle;spacingLeft=0;fontStyle=0;fontSize=16;spacing=5;gradientColor=none;" vertex="1" parent="nnnGRKQF1L4pYrHhvQn5-2">
          <mxGeometry x="42.2279792746114" y="625" width="152.02072538860105" height="40" as="geometry" />
        </mxCell>
        <mxCell id="nnnGRKQF1L4pYrHhvQn5-14" value="posts" style="html=1;shadow=1;dashed=0;shape=mxgraph.bootstrap.rrect;rSize=5;strokeColor=none;strokeWidth=1;fillColor=#FFE6A1;fontColor=#994C00;whiteSpace=wrap;align=center;verticalAlign=middle;spacingLeft=0;fontStyle=0;fontSize=16;spacing=5;gradientColor=none;" vertex="1" parent="nnnGRKQF1L4pYrHhvQn5-2">
          <mxGeometry x="42.2279792746114" y="695" width="152.02072538860105" height="40" as="geometry" />
        </mxCell>
        <mxCell id="nnnGRKQF1L4pYrHhvQn5-15" value="midia" style="html=1;shadow=1;dashed=0;shape=mxgraph.bootstrap.rrect;rSize=5;strokeColor=none;strokeWidth=1;fillColor=#FFE6A1;fontColor=#994C00;whiteSpace=wrap;align=center;verticalAlign=middle;spacingLeft=0;fontStyle=0;fontSize=16;spacing=5;gradientColor=none;" vertex="1" parent="nnnGRKQF1L4pYrHhvQn5-2">
          <mxGeometry x="42.2279792746114" y="760" width="152.02072538860105" height="40" as="geometry" />
        </mxCell>
        <mxCell id="nnnGRKQF1L4pYrHhvQn5-16" value="configruações" style="html=1;shadow=1;dashed=0;shape=mxgraph.bootstrap.rrect;rSize=5;strokeColor=none;strokeWidth=1;fillColor=#FFE6A1;fontColor=#994C00;whiteSpace=wrap;align=center;verticalAlign=middle;spacingLeft=0;fontStyle=0;fontSize=16;spacing=5;gradientColor=none;" vertex="1" parent="nnnGRKQF1L4pYrHhvQn5-2">
          <mxGeometry x="42.2279792746114" y="825" width="152.02072538860105" height="40" as="geometry" />
        </mxCell>
        <mxCell id="nnnGRKQF1L4pYrHhvQn5-17" value="avançar" style="html=1;shadow=0;dashed=0;shape=mxgraph.bootstrap.rrect;rSize=5;strokeColor=none;strokeWidth=1;fillColor=#FFAB4A;fontColor=#FFFFFF;whiteSpace=wrap;align=center;verticalAlign=middle;spacingLeft=0;fontStyle=0;fontSize=16;spacing=5;" vertex="1" parent="nnnGRKQF1L4pYrHhvQn5-2">
          <mxGeometry x="1130" y="12.5" width="143.58" height="45" as="geometry" />
        </mxCell>
        <mxCell id="nnnGRKQF1L4pYrHhvQn5-18" value="obras" style="html=1;shadow=1;dashed=0;shape=mxgraph.bootstrap.rrect;rSize=5;strokeColor=#6F0000;strokeWidth=1;fillColor=#a20025;fontColor=#ffffff;whiteSpace=wrap;align=center;verticalAlign=middle;spacingLeft=0;fontStyle=0;fontSize=16;spacing=5;" vertex="1" parent="nnnGRKQF1L4pYrHhvQn5-2">
          <mxGeometry x="42.2279792746114" y="550" width="152.02072538860105" height="40" as="geometry" />
        </mxCell>
        <mxCell id="Fe6q0kBTT0W4DuKIKcfJ-18" value="cadastro de obras" style="shape=table;childLayout=tableLayout;startSize=40;collapsible=0;recursiveResize=0;expand=0;" vertex="1" parent="nnnGRKQF1L4pYrHhvQn5-2">
          <mxGeometry x="287.1502590673575" y="160" width="952.3575129533674" height="685" as="geometry" />
        </mxCell>
        <mxCell id="Fe6q0kBTT0W4DuKIKcfJ-26" value="nr" style="shape=tableRow;horizontal=0;swimlaneHead=0;swimlaneBody=0;top=0;left=0;strokeColor=inherit;bottom=0;right=0;dropTarget=0;fontStyle=0;fillColor=none;points=[[0,0.5],[1,0.5]];portConstraint=eastwest;startSize=40;collapsible=0;recursiveResize=0;expand=0;" vertex="1" parent="Fe6q0kBTT0W4DuKIKcfJ-18">
          <mxGeometry y="40" width="952.3575129533674" height="81" as="geometry" />
        </mxCell>
        <mxCell id="Fe6q0kBTT0W4DuKIKcfJ-27" value="" style="swimlane;swimlaneHead=0;swimlaneBody=0;fontStyle=0;connectable=0;strokeColor=inherit;fillColor=none;startSize=0;collapsible=0;recursiveResize=0;expand=0;" vertex="1" parent="Fe6q0kBTT0W4DuKIKcfJ-26">
          <mxGeometry x="40" width="162" height="81" as="geometry">
            <mxRectangle width="162" height="81" as="alternateBounds" />
          </mxGeometry>
        </mxCell>
        <mxCell id="Fe6q0kBTT0W4DuKIKcfJ-82" value="TITULO" style="text;html=1;align=center;verticalAlign=middle;resizable=0;points=[];autosize=1;strokeColor=none;fillColor=none;" vertex="1" parent="Fe6q0kBTT0W4DuKIKcfJ-27">
          <mxGeometry x="40" y="38" width="70" height="30" as="geometry" />
        </mxCell>
        <mxCell id="Fe6q0kBTT0W4DuKIKcfJ-28" value="" style="swimlane;swimlaneHead=0;swimlaneBody=0;fontStyle=0;connectable=0;strokeColor=inherit;fillColor=none;startSize=0;collapsible=0;recursiveResize=0;expand=0;" vertex="1" parent="Fe6q0kBTT0W4DuKIKcfJ-26">
          <mxGeometry x="202" width="163" height="81" as="geometry">
            <mxRectangle width="163" height="81" as="alternateBounds" />
          </mxGeometry>
        </mxCell>
        <mxCell id="Fe6q0kBTT0W4DuKIKcfJ-83" value="DESCRIÇÃO" style="text;html=1;align=center;verticalAlign=middle;resizable=0;points=[];autosize=1;strokeColor=none;fillColor=none;" vertex="1" parent="Fe6q0kBTT0W4DuKIKcfJ-28">
          <mxGeometry x="47" y="38" width="90" height="30" as="geometry" />
        </mxCell>
        <mxCell id="Fe6q0kBTT0W4DuKIKcfJ-29" value="" style="swimlane;swimlaneHead=0;swimlaneBody=0;fontStyle=0;connectable=0;strokeColor=inherit;fillColor=none;startSize=0;collapsible=0;recursiveResize=0;expand=0;" vertex="1" parent="Fe6q0kBTT0W4DuKIKcfJ-26">
          <mxGeometry x="365" width="128" height="81" as="geometry">
            <mxRectangle width="128" height="81" as="alternateBounds" />
          </mxGeometry>
        </mxCell>
        <mxCell id="Fe6q0kBTT0W4DuKIKcfJ-84" value="MATERIAL" style="text;html=1;align=center;verticalAlign=middle;resizable=0;points=[];autosize=1;strokeColor=none;fillColor=none;" vertex="1" parent="Fe6q0kBTT0W4DuKIKcfJ-29">
          <mxGeometry x="23.99974093264234" y="38" width="80" height="30" as="geometry" />
        </mxCell>
        <mxCell id="Fe6q0kBTT0W4DuKIKcfJ-30" value="" style="swimlane;swimlaneHead=0;swimlaneBody=0;fontStyle=0;connectable=0;strokeColor=inherit;fillColor=none;startSize=0;collapsible=0;recursiveResize=0;expand=0;" vertex="1" parent="Fe6q0kBTT0W4DuKIKcfJ-26">
          <mxGeometry x="493" width="120" height="81" as="geometry">
            <mxRectangle width="120" height="81" as="alternateBounds" />
          </mxGeometry>
        </mxCell>
        <mxCell id="Fe6q0kBTT0W4DuKIKcfJ-85" value="ESTILO" style="text;html=1;align=center;verticalAlign=middle;resizable=0;points=[];autosize=1;strokeColor=none;fillColor=none;" vertex="1" parent="Fe6q0kBTT0W4DuKIKcfJ-30">
          <mxGeometry x="28" y="38" width="70" height="30" as="geometry" />
        </mxCell>
        <mxCell id="Fe6q0kBTT0W4DuKIKcfJ-31" value="" style="swimlane;swimlaneHead=0;swimlaneBody=0;fontStyle=0;connectable=0;strokeColor=inherit;fillColor=none;startSize=0;collapsible=0;recursiveResize=0;expand=0;" vertex="1" parent="Fe6q0kBTT0W4DuKIKcfJ-26">
          <mxGeometry x="613" width="73" height="81" as="geometry">
            <mxRectangle width="73" height="81" as="alternateBounds" />
          </mxGeometry>
        </mxCell>
        <mxCell id="Fe6q0kBTT0W4DuKIKcfJ-86" value="DATA" style="text;html=1;align=center;verticalAlign=middle;resizable=0;points=[];autosize=1;strokeColor=none;fillColor=none;" vertex="1" parent="Fe6q0kBTT0W4DuKIKcfJ-31">
          <mxGeometry x="5.5" y="38" width="50" height="30" as="geometry" />
        </mxCell>
        <mxCell id="Fe6q0kBTT0W4DuKIKcfJ-32" value="" style="swimlane;swimlaneHead=0;swimlaneBody=0;fontStyle=0;connectable=0;strokeColor=inherit;fillColor=none;startSize=0;collapsible=0;recursiveResize=0;expand=0;" vertex="1" parent="Fe6q0kBTT0W4DuKIKcfJ-26">
          <mxGeometry x="686" width="106" height="81" as="geometry">
            <mxRectangle width="106" height="81" as="alternateBounds" />
          </mxGeometry>
        </mxCell>
        <mxCell id="Fe6q0kBTT0W4DuKIKcfJ-87" value="STATUS" style="text;html=1;align=center;verticalAlign=middle;resizable=0;points=[];autosize=1;strokeColor=none;fillColor=none;" vertex="1" parent="Fe6q0kBTT0W4DuKIKcfJ-32">
          <mxGeometry x="40" y="38" width="70" height="30" as="geometry" />
        </mxCell>
        <mxCell id="Fe6q0kBTT0W4DuKIKcfJ-88" style="swimlane;swimlaneHead=0;swimlaneBody=0;fontStyle=0;connectable=0;strokeColor=inherit;fillColor=none;startSize=0;collapsible=0;recursiveResize=0;expand=0;" vertex="1" parent="Fe6q0kBTT0W4DuKIKcfJ-26">
          <mxGeometry x="792" width="80" height="81" as="geometry">
            <mxRectangle width="80" height="81" as="alternateBounds" />
          </mxGeometry>
        </mxCell>
        <mxCell id="Fe6q0kBTT0W4DuKIKcfJ-96" value="IMAGEM" style="text;html=1;align=center;verticalAlign=middle;resizable=0;points=[];autosize=1;strokeColor=none;fillColor=none;" vertex="1" parent="Fe6q0kBTT0W4DuKIKcfJ-88">
          <mxGeometry x="10.849740932642362" y="38" width="70" height="30" as="geometry" />
        </mxCell>
        <mxCell id="Fe6q0kBTT0W4DuKIKcfJ-113" style="swimlane;swimlaneHead=0;swimlaneBody=0;fontStyle=0;connectable=0;strokeColor=inherit;fillColor=none;startSize=0;collapsible=0;recursiveResize=0;expand=0;" vertex="1" parent="Fe6q0kBTT0W4DuKIKcfJ-26">
          <mxGeometry x="872" width="80" height="81" as="geometry">
            <mxRectangle width="80" height="81" as="alternateBounds" />
          </mxGeometry>
        </mxCell>
        <mxCell id="Fe6q0kBTT0W4DuKIKcfJ-121" value="AÇÃO" style="text;html=1;align=center;verticalAlign=middle;resizable=0;points=[];autosize=1;strokeColor=none;fillColor=none;" vertex="1" parent="Fe6q0kBTT0W4DuKIKcfJ-113">
          <mxGeometry x="12.639740932642354" y="40" width="60" height="30" as="geometry" />
        </mxCell>
        <mxCell id="Fe6q0kBTT0W4DuKIKcfJ-97" value="" style="edgeStyle=orthogonalEdgeStyle;rounded=0;orthogonalLoop=1;jettySize=auto;html=1;" edge="1" parent="Fe6q0kBTT0W4DuKIKcfJ-26" source="Fe6q0kBTT0W4DuKIKcfJ-86" target="Fe6q0kBTT0W4DuKIKcfJ-87">
          <mxGeometry relative="1" as="geometry" />
        </mxCell>
        <mxCell id="Fe6q0kBTT0W4DuKIKcfJ-33" value="1" style="shape=tableRow;horizontal=0;swimlaneHead=0;swimlaneBody=0;top=0;left=0;strokeColor=inherit;bottom=0;right=0;dropTarget=0;fontStyle=0;fillColor=none;points=[[0,0.5],[1,0.5]];portConstraint=eastwest;startSize=40;collapsible=0;recursiveResize=0;expand=0;" vertex="1" parent="Fe6q0kBTT0W4DuKIKcfJ-18">
          <mxGeometry y="121" width="952.3575129533674" height="81" as="geometry" />
        </mxCell>
        <mxCell id="Fe6q0kBTT0W4DuKIKcfJ-34" value="" style="swimlane;swimlaneHead=0;swimlaneBody=0;fontStyle=0;connectable=0;strokeColor=inherit;fillColor=none;startSize=0;collapsible=0;recursiveResize=0;expand=0;" vertex="1" parent="Fe6q0kBTT0W4DuKIKcfJ-33">
          <mxGeometry x="40" width="162" height="81" as="geometry">
            <mxRectangle width="162" height="81" as="alternateBounds" />
          </mxGeometry>
        </mxCell>
        <mxCell id="Fe6q0kBTT0W4DuKIKcfJ-98" value="O PRIMO XXXX" style="text;html=1;align=center;verticalAlign=middle;resizable=0;points=[];autosize=1;strokeColor=none;fillColor=none;" vertex="1" parent="Fe6q0kBTT0W4DuKIKcfJ-34">
          <mxGeometry x="-0.0002590673575468827" y="7" width="110" height="30" as="geometry" />
        </mxCell>
        <mxCell id="Fe6q0kBTT0W4DuKIKcfJ-35" value="" style="swimlane;swimlaneHead=0;swimlaneBody=0;fontStyle=0;connectable=0;strokeColor=inherit;fillColor=none;startSize=0;collapsible=0;recursiveResize=0;expand=0;" vertex="1" parent="Fe6q0kBTT0W4DuKIKcfJ-33">
          <mxGeometry x="202" width="163" height="81" as="geometry">
            <mxRectangle width="163" height="81" as="alternateBounds" />
          </mxGeometry>
        </mxCell>
        <mxCell id="Fe6q0kBTT0W4DuKIKcfJ-99" value="DDDDDD&lt;div&gt;GGGGG&lt;/div&gt;&lt;div&gt;GGGGG&lt;/div&gt;&lt;div&gt;UUUKHGGDHG&lt;/div&gt;" style="text;html=1;align=center;verticalAlign=middle;resizable=0;points=[];autosize=1;strokeColor=none;fillColor=none;" vertex="1" parent="Fe6q0kBTT0W4DuKIKcfJ-35">
          <mxGeometry x="20.849740932642362" width="110" height="70" as="geometry" />
        </mxCell>
        <mxCell id="Fe6q0kBTT0W4DuKIKcfJ-36" value="" style="swimlane;swimlaneHead=0;swimlaneBody=0;fontStyle=0;connectable=0;strokeColor=inherit;fillColor=none;startSize=0;collapsible=0;recursiveResize=0;expand=0;" vertex="1" parent="Fe6q0kBTT0W4DuKIKcfJ-33">
          <mxGeometry x="365" width="128" height="81" as="geometry">
            <mxRectangle width="128" height="81" as="alternateBounds" />
          </mxGeometry>
        </mxCell>
        <mxCell id="Fe6q0kBTT0W4DuKIKcfJ-107" value="Dropup" style="html=1;shadow=0;dashed=0;shape=mxgraph.bootstrap.rrect;rSize=5;strokeColor=none;strokeWidth=1;fillColor=#6C767D;fontColor=#ffffff;whiteSpace=wrap;align=left;verticalAlign=middle;fontStyle=0;fontSize=14;spacingLeft=10;" vertex="1" parent="Fe6q0kBTT0W4DuKIKcfJ-36">
          <mxGeometry x="23.99974093264234" y="27" width="80" height="40" as="geometry" />
        </mxCell>
        <mxCell id="Fe6q0kBTT0W4DuKIKcfJ-108" value="" style="shape=triangle;direction=north;fillColor=#ffffff;strokeColor=none;perimeter=none;" vertex="1" parent="Fe6q0kBTT0W4DuKIKcfJ-107">
          <mxGeometry x="1" y="0.5" width="10" height="5" relative="1" as="geometry">
            <mxPoint x="-17" y="-2.5" as="offset" />
          </mxGeometry>
        </mxCell>
        <mxCell id="Fe6q0kBTT0W4DuKIKcfJ-37" value="" style="swimlane;swimlaneHead=0;swimlaneBody=0;fontStyle=0;connectable=0;strokeColor=inherit;fillColor=none;startSize=0;collapsible=0;recursiveResize=0;expand=0;" vertex="1" parent="Fe6q0kBTT0W4DuKIKcfJ-33">
          <mxGeometry x="493" width="120" height="81" as="geometry">
            <mxRectangle width="120" height="81" as="alternateBounds" />
          </mxGeometry>
        </mxCell>
        <mxCell id="Fe6q0kBTT0W4DuKIKcfJ-105" value="Dropup" style="html=1;shadow=0;dashed=0;shape=mxgraph.bootstrap.rrect;rSize=5;strokeColor=none;strokeWidth=1;fillColor=#6C767D;fontColor=#ffffff;whiteSpace=wrap;align=left;verticalAlign=middle;fontStyle=0;fontSize=14;spacingLeft=10;" vertex="1" parent="Fe6q0kBTT0W4DuKIKcfJ-37">
          <mxGeometry x="12.99974093264234" y="25.5" width="100" height="40" as="geometry" />
        </mxCell>
        <mxCell id="Fe6q0kBTT0W4DuKIKcfJ-106" value="" style="shape=triangle;direction=north;fillColor=#ffffff;strokeColor=none;perimeter=none;" vertex="1" parent="Fe6q0kBTT0W4DuKIKcfJ-105">
          <mxGeometry x="1" y="0.5" width="10" height="5" relative="1" as="geometry">
            <mxPoint x="-17" y="-2.5" as="offset" />
          </mxGeometry>
        </mxCell>
        <mxCell id="Fe6q0kBTT0W4DuKIKcfJ-38" value="" style="swimlane;swimlaneHead=0;swimlaneBody=0;fontStyle=0;connectable=0;strokeColor=inherit;fillColor=none;startSize=0;collapsible=0;recursiveResize=0;expand=0;" vertex="1" parent="Fe6q0kBTT0W4DuKIKcfJ-33">
          <mxGeometry x="613" width="73" height="81" as="geometry">
            <mxRectangle width="73" height="81" as="alternateBounds" />
          </mxGeometry>
        </mxCell>
        <mxCell id="Fe6q0kBTT0W4DuKIKcfJ-125" value="01/01/2025" style="text;html=1;align=center;verticalAlign=middle;resizable=0;points=[];autosize=1;strokeColor=none;fillColor=none;" vertex="1" parent="Fe6q0kBTT0W4DuKIKcfJ-38">
          <mxGeometry x="-6.500259067357661" y="30" width="80" height="30" as="geometry" />
        </mxCell>
        <mxCell id="Fe6q0kBTT0W4DuKIKcfJ-39" value="" style="swimlane;swimlaneHead=0;swimlaneBody=0;fontStyle=0;connectable=0;strokeColor=inherit;fillColor=none;startSize=0;collapsible=0;recursiveResize=0;expand=0;" vertex="1" parent="Fe6q0kBTT0W4DuKIKcfJ-33">
          <mxGeometry x="686" width="106" height="81" as="geometry">
            <mxRectangle width="106" height="81" as="alternateBounds" />
          </mxGeometry>
        </mxCell>
        <mxCell id="Fe6q0kBTT0W4DuKIKcfJ-109" value="Dropup" style="html=1;shadow=0;dashed=0;shape=mxgraph.bootstrap.rrect;rSize=5;strokeColor=none;strokeWidth=1;fillColor=#6C767D;fontColor=#ffffff;whiteSpace=wrap;align=left;verticalAlign=middle;fontStyle=0;fontSize=14;spacingLeft=10;" vertex="1" parent="Fe6q0kBTT0W4DuKIKcfJ-39">
          <mxGeometry x="22.99974093264234" y="25.5" width="80" height="40" as="geometry" />
        </mxCell>
        <mxCell id="Fe6q0kBTT0W4DuKIKcfJ-110" value="" style="shape=triangle;direction=north;fillColor=#ffffff;strokeColor=none;perimeter=none;" vertex="1" parent="Fe6q0kBTT0W4DuKIKcfJ-109">
          <mxGeometry x="1" y="0.5" width="10" height="5" relative="1" as="geometry">
            <mxPoint x="-17" y="-2.5" as="offset" />
          </mxGeometry>
        </mxCell>
        <mxCell id="Fe6q0kBTT0W4DuKIKcfJ-89" style="swimlane;swimlaneHead=0;swimlaneBody=0;fontStyle=0;connectable=0;strokeColor=inherit;fillColor=none;startSize=0;collapsible=0;recursiveResize=0;expand=0;" vertex="1" parent="Fe6q0kBTT0W4DuKIKcfJ-33">
          <mxGeometry x="792" width="80" height="81" as="geometry">
            <mxRectangle width="80" height="81" as="alternateBounds" />
          </mxGeometry>
        </mxCell>
        <mxCell id="Fe6q0kBTT0W4DuKIKcfJ-111" value="" style="image;aspect=fixed;html=1;points=[];align=center;fontSize=12;image=img/lib/azure2/general/Image.svg;" vertex="1" parent="Fe6q0kBTT0W4DuKIKcfJ-89">
          <mxGeometry x="10.849740932642362" y="18.5" width="64" height="44" as="geometry" />
        </mxCell>
        <UserObject label="Link" link="https://www.draw.io" id="Fe6q0kBTT0W4DuKIKcfJ-112">
          <mxCell style="text;html=1;strokeColor=none;fillColor=none;whiteSpace=wrap;align=center;verticalAlign=middle;fontColor=#0000EE;fontStyle=4;" vertex="1" parent="Fe6q0kBTT0W4DuKIKcfJ-89">
            <mxGeometry x="20.849740932642362" y="22.5" width="60" height="40" as="geometry" />
          </mxCell>
        </UserObject>
        <mxCell id="Fe6q0kBTT0W4DuKIKcfJ-114" style="swimlane;swimlaneHead=0;swimlaneBody=0;fontStyle=0;connectable=0;strokeColor=inherit;fillColor=none;startSize=0;collapsible=0;recursiveResize=0;expand=0;" vertex="1" parent="Fe6q0kBTT0W4DuKIKcfJ-33">
          <mxGeometry x="872" width="80" height="81" as="geometry">
            <mxRectangle width="80" height="81" as="alternateBounds" />
          </mxGeometry>
        </mxCell>
        <mxCell id="Fe6q0kBTT0W4DuKIKcfJ-122" value="" style="html=1;verticalLabelPosition=bottom;align=center;labelBackgroundColor=#ffffff;verticalAlign=top;strokeWidth=2;strokeColor=#0080F0;shadow=0;dashed=0;shape=mxgraph.ios7.icons.edit;" vertex="1" parent="Fe6q0kBTT0W4DuKIKcfJ-114">
          <mxGeometry x="30.85" y="12.5" width="19.15" height="17.5" as="geometry" />
        </mxCell>
        <mxCell id="Fe6q0kBTT0W4DuKIKcfJ-124" value="" style="verticalLabelPosition=bottom;verticalAlign=top;html=1;shadow=0;dashed=0;strokeWidth=1;shape=mxgraph.ios.iDeleteApp;fillColor=#cccccc;fillColor2=#000000;strokeColor=#ffffff;sketch=0;" vertex="1" parent="Fe6q0kBTT0W4DuKIKcfJ-114">
          <mxGeometry x="22.5" y="47.5" width="27.5" height="22.5" as="geometry" />
        </mxCell>
        <mxCell id="Fe6q0kBTT0W4DuKIKcfJ-40" value="2" style="shape=tableRow;horizontal=0;swimlaneHead=0;swimlaneBody=0;top=0;left=0;strokeColor=inherit;bottom=0;right=0;dropTarget=0;fontStyle=0;fillColor=none;points=[[0,0.5],[1,0.5]];portConstraint=eastwest;startSize=40;collapsible=0;recursiveResize=0;expand=0;" vertex="1" parent="Fe6q0kBTT0W4DuKIKcfJ-18">
          <mxGeometry y="202" width="952.3575129533674" height="78" as="geometry" />
        </mxCell>
        <mxCell id="Fe6q0kBTT0W4DuKIKcfJ-41" value="" style="swimlane;swimlaneHead=0;swimlaneBody=0;fontStyle=0;connectable=0;strokeColor=inherit;fillColor=none;startSize=0;collapsible=0;recursiveResize=0;expand=0;" vertex="1" parent="Fe6q0kBTT0W4DuKIKcfJ-40">
          <mxGeometry x="40" width="162" height="78" as="geometry">
            <mxRectangle width="162" height="78" as="alternateBounds" />
          </mxGeometry>
        </mxCell>
        <mxCell id="Fe6q0kBTT0W4DuKIKcfJ-42" value="" style="swimlane;swimlaneHead=0;swimlaneBody=0;fontStyle=0;connectable=0;strokeColor=inherit;fillColor=none;startSize=0;collapsible=0;recursiveResize=0;expand=0;" vertex="1" parent="Fe6q0kBTT0W4DuKIKcfJ-40">
          <mxGeometry x="202" width="163" height="78" as="geometry">
            <mxRectangle width="163" height="78" as="alternateBounds" />
          </mxGeometry>
        </mxCell>
        <mxCell id="Fe6q0kBTT0W4DuKIKcfJ-43" value="" style="swimlane;swimlaneHead=0;swimlaneBody=0;fontStyle=0;connectable=0;strokeColor=inherit;fillColor=none;startSize=0;collapsible=0;recursiveResize=0;expand=0;" vertex="1" parent="Fe6q0kBTT0W4DuKIKcfJ-40">
          <mxGeometry x="365" width="128" height="78" as="geometry">
            <mxRectangle width="128" height="78" as="alternateBounds" />
          </mxGeometry>
        </mxCell>
        <mxCell id="Fe6q0kBTT0W4DuKIKcfJ-44" value="" style="swimlane;swimlaneHead=0;swimlaneBody=0;fontStyle=0;connectable=0;strokeColor=inherit;fillColor=none;startSize=0;collapsible=0;recursiveResize=0;expand=0;" vertex="1" parent="Fe6q0kBTT0W4DuKIKcfJ-40">
          <mxGeometry x="493" width="120" height="78" as="geometry">
            <mxRectangle width="120" height="78" as="alternateBounds" />
          </mxGeometry>
        </mxCell>
        <mxCell id="Fe6q0kBTT0W4DuKIKcfJ-45" value="" style="swimlane;swimlaneHead=0;swimlaneBody=0;fontStyle=0;connectable=0;strokeColor=inherit;fillColor=none;startSize=0;collapsible=0;recursiveResize=0;expand=0;" vertex="1" parent="Fe6q0kBTT0W4DuKIKcfJ-40">
          <mxGeometry x="613" width="73" height="78" as="geometry">
            <mxRectangle width="73" height="78" as="alternateBounds" />
          </mxGeometry>
        </mxCell>
        <mxCell id="Fe6q0kBTT0W4DuKIKcfJ-46" value="" style="swimlane;swimlaneHead=0;swimlaneBody=0;fontStyle=0;connectable=0;strokeColor=inherit;fillColor=none;startSize=0;collapsible=0;recursiveResize=0;expand=0;" vertex="1" parent="Fe6q0kBTT0W4DuKIKcfJ-40">
          <mxGeometry x="686" width="106" height="78" as="geometry">
            <mxRectangle width="106" height="78" as="alternateBounds" />
          </mxGeometry>
        </mxCell>
        <mxCell id="Fe6q0kBTT0W4DuKIKcfJ-90" style="swimlane;swimlaneHead=0;swimlaneBody=0;fontStyle=0;connectable=0;strokeColor=inherit;fillColor=none;startSize=0;collapsible=0;recursiveResize=0;expand=0;" vertex="1" parent="Fe6q0kBTT0W4DuKIKcfJ-40">
          <mxGeometry x="792" width="80" height="78" as="geometry">
            <mxRectangle width="80" height="78" as="alternateBounds" />
          </mxGeometry>
        </mxCell>
        <mxCell id="Fe6q0kBTT0W4DuKIKcfJ-115" style="swimlane;swimlaneHead=0;swimlaneBody=0;fontStyle=0;connectable=0;strokeColor=inherit;fillColor=none;startSize=0;collapsible=0;recursiveResize=0;expand=0;" vertex="1" parent="Fe6q0kBTT0W4DuKIKcfJ-40">
          <mxGeometry x="872" width="80" height="78" as="geometry">
            <mxRectangle width="80" height="78" as="alternateBounds" />
          </mxGeometry>
        </mxCell>
        <mxCell id="Fe6q0kBTT0W4DuKIKcfJ-47" value="3" style="shape=tableRow;horizontal=0;swimlaneHead=0;swimlaneBody=0;top=0;left=0;strokeColor=inherit;bottom=0;right=0;dropTarget=0;fontStyle=0;fillColor=none;points=[[0,0.5],[1,0.5]];portConstraint=eastwest;startSize=40;collapsible=0;recursiveResize=0;expand=0;" vertex="1" parent="Fe6q0kBTT0W4DuKIKcfJ-18">
          <mxGeometry y="280" width="952.3575129533674" height="80" as="geometry" />
        </mxCell>
        <mxCell id="Fe6q0kBTT0W4DuKIKcfJ-48" value="" style="swimlane;swimlaneHead=0;swimlaneBody=0;fontStyle=0;connectable=0;strokeColor=inherit;fillColor=none;startSize=0;collapsible=0;recursiveResize=0;expand=0;" vertex="1" parent="Fe6q0kBTT0W4DuKIKcfJ-47">
          <mxGeometry x="40" width="162" height="80" as="geometry">
            <mxRectangle width="162" height="80" as="alternateBounds" />
          </mxGeometry>
        </mxCell>
        <mxCell id="Fe6q0kBTT0W4DuKIKcfJ-49" value="" style="swimlane;swimlaneHead=0;swimlaneBody=0;fontStyle=0;connectable=0;strokeColor=inherit;fillColor=none;startSize=0;collapsible=0;recursiveResize=0;expand=0;" vertex="1" parent="Fe6q0kBTT0W4DuKIKcfJ-47">
          <mxGeometry x="202" width="163" height="80" as="geometry">
            <mxRectangle width="163" height="80" as="alternateBounds" />
          </mxGeometry>
        </mxCell>
        <mxCell id="Fe6q0kBTT0W4DuKIKcfJ-50" value="" style="swimlane;swimlaneHead=0;swimlaneBody=0;fontStyle=0;connectable=0;strokeColor=inherit;fillColor=none;startSize=0;collapsible=0;recursiveResize=0;expand=0;" vertex="1" parent="Fe6q0kBTT0W4DuKIKcfJ-47">
          <mxGeometry x="365" width="128" height="80" as="geometry">
            <mxRectangle width="128" height="80" as="alternateBounds" />
          </mxGeometry>
        </mxCell>
        <mxCell id="Fe6q0kBTT0W4DuKIKcfJ-51" value="" style="swimlane;swimlaneHead=0;swimlaneBody=0;fontStyle=0;connectable=0;strokeColor=inherit;fillColor=none;startSize=0;collapsible=0;recursiveResize=0;expand=0;" vertex="1" parent="Fe6q0kBTT0W4DuKIKcfJ-47">
          <mxGeometry x="493" width="120" height="80" as="geometry">
            <mxRectangle width="120" height="80" as="alternateBounds" />
          </mxGeometry>
        </mxCell>
        <mxCell id="Fe6q0kBTT0W4DuKIKcfJ-52" value="" style="swimlane;swimlaneHead=0;swimlaneBody=0;fontStyle=0;connectable=0;strokeColor=inherit;fillColor=none;startSize=0;collapsible=0;recursiveResize=0;expand=0;" vertex="1" parent="Fe6q0kBTT0W4DuKIKcfJ-47">
          <mxGeometry x="613" width="73" height="80" as="geometry">
            <mxRectangle width="73" height="80" as="alternateBounds" />
          </mxGeometry>
        </mxCell>
        <mxCell id="Fe6q0kBTT0W4DuKIKcfJ-53" value="" style="swimlane;swimlaneHead=0;swimlaneBody=0;fontStyle=0;connectable=0;strokeColor=inherit;fillColor=none;startSize=0;collapsible=0;recursiveResize=0;expand=0;" vertex="1" parent="Fe6q0kBTT0W4DuKIKcfJ-47">
          <mxGeometry x="686" width="106" height="80" as="geometry">
            <mxRectangle width="106" height="80" as="alternateBounds" />
          </mxGeometry>
        </mxCell>
        <mxCell id="Fe6q0kBTT0W4DuKIKcfJ-91" style="swimlane;swimlaneHead=0;swimlaneBody=0;fontStyle=0;connectable=0;strokeColor=inherit;fillColor=none;startSize=0;collapsible=0;recursiveResize=0;expand=0;" vertex="1" parent="Fe6q0kBTT0W4DuKIKcfJ-47">
          <mxGeometry x="792" width="80" height="80" as="geometry">
            <mxRectangle width="80" height="80" as="alternateBounds" />
          </mxGeometry>
        </mxCell>
        <mxCell id="Fe6q0kBTT0W4DuKIKcfJ-116" style="swimlane;swimlaneHead=0;swimlaneBody=0;fontStyle=0;connectable=0;strokeColor=inherit;fillColor=none;startSize=0;collapsible=0;recursiveResize=0;expand=0;" vertex="1" parent="Fe6q0kBTT0W4DuKIKcfJ-47">
          <mxGeometry x="872" width="80" height="80" as="geometry">
            <mxRectangle width="80" height="80" as="alternateBounds" />
          </mxGeometry>
        </mxCell>
        <mxCell id="Fe6q0kBTT0W4DuKIKcfJ-54" value="" style="shape=tableRow;horizontal=0;swimlaneHead=0;swimlaneBody=0;top=0;left=0;strokeColor=inherit;bottom=0;right=0;dropTarget=0;fontStyle=0;fillColor=none;points=[[0,0.5],[1,0.5]];portConstraint=eastwest;startSize=40;collapsible=0;recursiveResize=0;expand=0;" vertex="1" parent="Fe6q0kBTT0W4DuKIKcfJ-18">
          <mxGeometry y="360" width="952.3575129533674" height="82" as="geometry" />
        </mxCell>
        <mxCell id="Fe6q0kBTT0W4DuKIKcfJ-55" value="" style="swimlane;swimlaneHead=0;swimlaneBody=0;fontStyle=0;connectable=0;strokeColor=inherit;fillColor=none;startSize=0;collapsible=0;recursiveResize=0;expand=0;" vertex="1" parent="Fe6q0kBTT0W4DuKIKcfJ-54">
          <mxGeometry x="40" width="162" height="82" as="geometry">
            <mxRectangle width="162" height="82" as="alternateBounds" />
          </mxGeometry>
        </mxCell>
        <mxCell id="Fe6q0kBTT0W4DuKIKcfJ-56" value="" style="swimlane;swimlaneHead=0;swimlaneBody=0;fontStyle=0;connectable=0;strokeColor=inherit;fillColor=none;startSize=0;collapsible=0;recursiveResize=0;expand=0;" vertex="1" parent="Fe6q0kBTT0W4DuKIKcfJ-54">
          <mxGeometry x="202" width="163" height="82" as="geometry">
            <mxRectangle width="163" height="82" as="alternateBounds" />
          </mxGeometry>
        </mxCell>
        <mxCell id="Fe6q0kBTT0W4DuKIKcfJ-57" value="" style="swimlane;swimlaneHead=0;swimlaneBody=0;fontStyle=0;connectable=0;strokeColor=inherit;fillColor=none;startSize=0;collapsible=0;recursiveResize=0;expand=0;" vertex="1" parent="Fe6q0kBTT0W4DuKIKcfJ-54">
          <mxGeometry x="365" width="128" height="82" as="geometry">
            <mxRectangle width="128" height="82" as="alternateBounds" />
          </mxGeometry>
        </mxCell>
        <mxCell id="Fe6q0kBTT0W4DuKIKcfJ-58" value="" style="swimlane;swimlaneHead=0;swimlaneBody=0;fontStyle=0;connectable=0;strokeColor=inherit;fillColor=none;startSize=0;collapsible=0;recursiveResize=0;expand=0;" vertex="1" parent="Fe6q0kBTT0W4DuKIKcfJ-54">
          <mxGeometry x="493" width="120" height="82" as="geometry">
            <mxRectangle width="120" height="82" as="alternateBounds" />
          </mxGeometry>
        </mxCell>
        <mxCell id="Fe6q0kBTT0W4DuKIKcfJ-59" value="" style="swimlane;swimlaneHead=0;swimlaneBody=0;fontStyle=0;connectable=0;strokeColor=inherit;fillColor=none;startSize=0;collapsible=0;recursiveResize=0;expand=0;" vertex="1" parent="Fe6q0kBTT0W4DuKIKcfJ-54">
          <mxGeometry x="613" width="73" height="82" as="geometry">
            <mxRectangle width="73" height="82" as="alternateBounds" />
          </mxGeometry>
        </mxCell>
        <mxCell id="Fe6q0kBTT0W4DuKIKcfJ-60" value="" style="swimlane;swimlaneHead=0;swimlaneBody=0;fontStyle=0;connectable=0;strokeColor=inherit;fillColor=none;startSize=0;collapsible=0;recursiveResize=0;expand=0;" vertex="1" parent="Fe6q0kBTT0W4DuKIKcfJ-54">
          <mxGeometry x="686" width="106" height="82" as="geometry">
            <mxRectangle width="106" height="82" as="alternateBounds" />
          </mxGeometry>
        </mxCell>
        <mxCell id="Fe6q0kBTT0W4DuKIKcfJ-92" style="swimlane;swimlaneHead=0;swimlaneBody=0;fontStyle=0;connectable=0;strokeColor=inherit;fillColor=none;startSize=0;collapsible=0;recursiveResize=0;expand=0;" vertex="1" parent="Fe6q0kBTT0W4DuKIKcfJ-54">
          <mxGeometry x="792" width="80" height="82" as="geometry">
            <mxRectangle width="80" height="82" as="alternateBounds" />
          </mxGeometry>
        </mxCell>
        <mxCell id="Fe6q0kBTT0W4DuKIKcfJ-117" style="swimlane;swimlaneHead=0;swimlaneBody=0;fontStyle=0;connectable=0;strokeColor=inherit;fillColor=none;startSize=0;collapsible=0;recursiveResize=0;expand=0;" vertex="1" parent="Fe6q0kBTT0W4DuKIKcfJ-54">
          <mxGeometry x="872" width="80" height="82" as="geometry">
            <mxRectangle width="80" height="82" as="alternateBounds" />
          </mxGeometry>
        </mxCell>
        <mxCell id="Fe6q0kBTT0W4DuKIKcfJ-61" value="" style="shape=tableRow;horizontal=0;swimlaneHead=0;swimlaneBody=0;top=0;left=0;strokeColor=inherit;bottom=0;right=0;dropTarget=0;fontStyle=0;fillColor=none;points=[[0,0.5],[1,0.5]];portConstraint=eastwest;startSize=40;collapsible=0;recursiveResize=0;expand=0;" vertex="1" parent="Fe6q0kBTT0W4DuKIKcfJ-18">
          <mxGeometry y="442" width="952.3575129533674" height="81" as="geometry" />
        </mxCell>
        <mxCell id="Fe6q0kBTT0W4DuKIKcfJ-62" value="" style="swimlane;swimlaneHead=0;swimlaneBody=0;fontStyle=0;connectable=0;strokeColor=inherit;fillColor=none;startSize=0;collapsible=0;recursiveResize=0;expand=0;" vertex="1" parent="Fe6q0kBTT0W4DuKIKcfJ-61">
          <mxGeometry x="40" width="162" height="81" as="geometry">
            <mxRectangle width="162" height="81" as="alternateBounds" />
          </mxGeometry>
        </mxCell>
        <mxCell id="Fe6q0kBTT0W4DuKIKcfJ-63" value="" style="swimlane;swimlaneHead=0;swimlaneBody=0;fontStyle=0;connectable=0;strokeColor=inherit;fillColor=none;startSize=0;collapsible=0;recursiveResize=0;expand=0;" vertex="1" parent="Fe6q0kBTT0W4DuKIKcfJ-61">
          <mxGeometry x="202" width="163" height="81" as="geometry">
            <mxRectangle width="163" height="81" as="alternateBounds" />
          </mxGeometry>
        </mxCell>
        <mxCell id="Fe6q0kBTT0W4DuKIKcfJ-64" value="" style="swimlane;swimlaneHead=0;swimlaneBody=0;fontStyle=0;connectable=0;strokeColor=inherit;fillColor=none;startSize=0;collapsible=0;recursiveResize=0;expand=0;" vertex="1" parent="Fe6q0kBTT0W4DuKIKcfJ-61">
          <mxGeometry x="365" width="128" height="81" as="geometry">
            <mxRectangle width="128" height="81" as="alternateBounds" />
          </mxGeometry>
        </mxCell>
        <mxCell id="Fe6q0kBTT0W4DuKIKcfJ-65" value="" style="swimlane;swimlaneHead=0;swimlaneBody=0;fontStyle=0;connectable=0;strokeColor=inherit;fillColor=none;startSize=0;collapsible=0;recursiveResize=0;expand=0;" vertex="1" parent="Fe6q0kBTT0W4DuKIKcfJ-61">
          <mxGeometry x="493" width="120" height="81" as="geometry">
            <mxRectangle width="120" height="81" as="alternateBounds" />
          </mxGeometry>
        </mxCell>
        <mxCell id="Fe6q0kBTT0W4DuKIKcfJ-66" value="" style="swimlane;swimlaneHead=0;swimlaneBody=0;fontStyle=0;connectable=0;strokeColor=inherit;fillColor=none;startSize=0;collapsible=0;recursiveResize=0;expand=0;" vertex="1" parent="Fe6q0kBTT0W4DuKIKcfJ-61">
          <mxGeometry x="613" width="73" height="81" as="geometry">
            <mxRectangle width="73" height="81" as="alternateBounds" />
          </mxGeometry>
        </mxCell>
        <mxCell id="Fe6q0kBTT0W4DuKIKcfJ-67" value="" style="swimlane;swimlaneHead=0;swimlaneBody=0;fontStyle=0;connectable=0;strokeColor=inherit;fillColor=none;startSize=0;collapsible=0;recursiveResize=0;expand=0;" vertex="1" parent="Fe6q0kBTT0W4DuKIKcfJ-61">
          <mxGeometry x="686" width="106" height="81" as="geometry">
            <mxRectangle width="106" height="81" as="alternateBounds" />
          </mxGeometry>
        </mxCell>
        <mxCell id="Fe6q0kBTT0W4DuKIKcfJ-93" style="swimlane;swimlaneHead=0;swimlaneBody=0;fontStyle=0;connectable=0;strokeColor=inherit;fillColor=none;startSize=0;collapsible=0;recursiveResize=0;expand=0;" vertex="1" parent="Fe6q0kBTT0W4DuKIKcfJ-61">
          <mxGeometry x="792" width="80" height="81" as="geometry">
            <mxRectangle width="80" height="81" as="alternateBounds" />
          </mxGeometry>
        </mxCell>
        <mxCell id="Fe6q0kBTT0W4DuKIKcfJ-118" style="swimlane;swimlaneHead=0;swimlaneBody=0;fontStyle=0;connectable=0;strokeColor=inherit;fillColor=none;startSize=0;collapsible=0;recursiveResize=0;expand=0;" vertex="1" parent="Fe6q0kBTT0W4DuKIKcfJ-61">
          <mxGeometry x="872" width="80" height="81" as="geometry">
            <mxRectangle width="80" height="81" as="alternateBounds" />
          </mxGeometry>
        </mxCell>
        <mxCell id="Fe6q0kBTT0W4DuKIKcfJ-68" value="" style="shape=tableRow;horizontal=0;swimlaneHead=0;swimlaneBody=0;top=0;left=0;strokeColor=inherit;bottom=0;right=0;dropTarget=0;fontStyle=0;fillColor=none;points=[[0,0.5],[1,0.5]];portConstraint=eastwest;startSize=40;collapsible=0;recursiveResize=0;expand=0;" vertex="1" parent="Fe6q0kBTT0W4DuKIKcfJ-18">
          <mxGeometry y="523" width="952.3575129533674" height="81" as="geometry" />
        </mxCell>
        <mxCell id="Fe6q0kBTT0W4DuKIKcfJ-69" value="" style="swimlane;swimlaneHead=0;swimlaneBody=0;fontStyle=0;connectable=0;strokeColor=inherit;fillColor=none;startSize=0;collapsible=0;recursiveResize=0;expand=0;" vertex="1" parent="Fe6q0kBTT0W4DuKIKcfJ-68">
          <mxGeometry x="40" width="162" height="81" as="geometry">
            <mxRectangle width="162" height="81" as="alternateBounds" />
          </mxGeometry>
        </mxCell>
        <mxCell id="Fe6q0kBTT0W4DuKIKcfJ-70" value="" style="swimlane;swimlaneHead=0;swimlaneBody=0;fontStyle=0;connectable=0;strokeColor=inherit;fillColor=none;startSize=0;collapsible=0;recursiveResize=0;expand=0;" vertex="1" parent="Fe6q0kBTT0W4DuKIKcfJ-68">
          <mxGeometry x="202" width="163" height="81" as="geometry">
            <mxRectangle width="163" height="81" as="alternateBounds" />
          </mxGeometry>
        </mxCell>
        <mxCell id="Fe6q0kBTT0W4DuKIKcfJ-71" value="" style="swimlane;swimlaneHead=0;swimlaneBody=0;fontStyle=0;connectable=0;strokeColor=inherit;fillColor=none;startSize=0;collapsible=0;recursiveResize=0;expand=0;" vertex="1" parent="Fe6q0kBTT0W4DuKIKcfJ-68">
          <mxGeometry x="365" width="128" height="81" as="geometry">
            <mxRectangle width="128" height="81" as="alternateBounds" />
          </mxGeometry>
        </mxCell>
        <mxCell id="Fe6q0kBTT0W4DuKIKcfJ-72" value="" style="swimlane;swimlaneHead=0;swimlaneBody=0;fontStyle=0;connectable=0;strokeColor=inherit;fillColor=none;startSize=0;collapsible=0;recursiveResize=0;expand=0;" vertex="1" parent="Fe6q0kBTT0W4DuKIKcfJ-68">
          <mxGeometry x="493" width="120" height="81" as="geometry">
            <mxRectangle width="120" height="81" as="alternateBounds" />
          </mxGeometry>
        </mxCell>
        <mxCell id="Fe6q0kBTT0W4DuKIKcfJ-73" value="" style="swimlane;swimlaneHead=0;swimlaneBody=0;fontStyle=0;connectable=0;strokeColor=inherit;fillColor=none;startSize=0;collapsible=0;recursiveResize=0;expand=0;" vertex="1" parent="Fe6q0kBTT0W4DuKIKcfJ-68">
          <mxGeometry x="613" width="73" height="81" as="geometry">
            <mxRectangle width="73" height="81" as="alternateBounds" />
          </mxGeometry>
        </mxCell>
        <mxCell id="Fe6q0kBTT0W4DuKIKcfJ-74" value="" style="swimlane;swimlaneHead=0;swimlaneBody=0;fontStyle=0;connectable=0;strokeColor=inherit;fillColor=none;startSize=0;collapsible=0;recursiveResize=0;expand=0;" vertex="1" parent="Fe6q0kBTT0W4DuKIKcfJ-68">
          <mxGeometry x="686" width="106" height="81" as="geometry">
            <mxRectangle width="106" height="81" as="alternateBounds" />
          </mxGeometry>
        </mxCell>
        <mxCell id="Fe6q0kBTT0W4DuKIKcfJ-94" style="swimlane;swimlaneHead=0;swimlaneBody=0;fontStyle=0;connectable=0;strokeColor=inherit;fillColor=none;startSize=0;collapsible=0;recursiveResize=0;expand=0;" vertex="1" parent="Fe6q0kBTT0W4DuKIKcfJ-68">
          <mxGeometry x="792" width="80" height="81" as="geometry">
            <mxRectangle width="80" height="81" as="alternateBounds" />
          </mxGeometry>
        </mxCell>
        <mxCell id="Fe6q0kBTT0W4DuKIKcfJ-119" style="swimlane;swimlaneHead=0;swimlaneBody=0;fontStyle=0;connectable=0;strokeColor=inherit;fillColor=none;startSize=0;collapsible=0;recursiveResize=0;expand=0;" vertex="1" parent="Fe6q0kBTT0W4DuKIKcfJ-68">
          <mxGeometry x="872" width="80" height="81" as="geometry">
            <mxRectangle width="80" height="81" as="alternateBounds" />
          </mxGeometry>
        </mxCell>
        <mxCell id="Fe6q0kBTT0W4DuKIKcfJ-75" value="" style="shape=tableRow;horizontal=0;swimlaneHead=0;swimlaneBody=0;top=0;left=0;strokeColor=inherit;bottom=0;right=0;dropTarget=0;fontStyle=0;fillColor=none;points=[[0,0.5],[1,0.5]];portConstraint=eastwest;startSize=40;collapsible=0;recursiveResize=0;expand=0;" vertex="1" parent="Fe6q0kBTT0W4DuKIKcfJ-18">
          <mxGeometry y="604" width="952.3575129533674" height="81" as="geometry" />
        </mxCell>
        <mxCell id="Fe6q0kBTT0W4DuKIKcfJ-76" value="" style="swimlane;swimlaneHead=0;swimlaneBody=0;fontStyle=0;connectable=0;strokeColor=inherit;fillColor=none;startSize=0;collapsible=0;recursiveResize=0;expand=0;" vertex="1" parent="Fe6q0kBTT0W4DuKIKcfJ-75">
          <mxGeometry x="40" width="162" height="81" as="geometry">
            <mxRectangle width="162" height="81" as="alternateBounds" />
          </mxGeometry>
        </mxCell>
        <mxCell id="Fe6q0kBTT0W4DuKIKcfJ-77" value="" style="swimlane;swimlaneHead=0;swimlaneBody=0;fontStyle=0;connectable=0;strokeColor=inherit;fillColor=none;startSize=0;collapsible=0;recursiveResize=0;expand=0;" vertex="1" parent="Fe6q0kBTT0W4DuKIKcfJ-75">
          <mxGeometry x="202" width="163" height="81" as="geometry">
            <mxRectangle width="163" height="81" as="alternateBounds" />
          </mxGeometry>
        </mxCell>
        <mxCell id="Fe6q0kBTT0W4DuKIKcfJ-78" value="" style="swimlane;swimlaneHead=0;swimlaneBody=0;fontStyle=0;connectable=0;strokeColor=inherit;fillColor=none;startSize=0;collapsible=0;recursiveResize=0;expand=0;" vertex="1" parent="Fe6q0kBTT0W4DuKIKcfJ-75">
          <mxGeometry x="365" width="128" height="81" as="geometry">
            <mxRectangle width="128" height="81" as="alternateBounds" />
          </mxGeometry>
        </mxCell>
        <mxCell id="Fe6q0kBTT0W4DuKIKcfJ-79" value="" style="swimlane;swimlaneHead=0;swimlaneBody=0;fontStyle=0;connectable=0;strokeColor=inherit;fillColor=none;startSize=0;collapsible=0;recursiveResize=0;expand=0;" vertex="1" parent="Fe6q0kBTT0W4DuKIKcfJ-75">
          <mxGeometry x="493" width="120" height="81" as="geometry">
            <mxRectangle width="120" height="81" as="alternateBounds" />
          </mxGeometry>
        </mxCell>
        <mxCell id="Fe6q0kBTT0W4DuKIKcfJ-80" value="" style="swimlane;swimlaneHead=0;swimlaneBody=0;fontStyle=0;connectable=0;strokeColor=inherit;fillColor=none;startSize=0;collapsible=0;recursiveResize=0;expand=0;" vertex="1" parent="Fe6q0kBTT0W4DuKIKcfJ-75">
          <mxGeometry x="613" width="73" height="81" as="geometry">
            <mxRectangle width="73" height="81" as="alternateBounds" />
          </mxGeometry>
        </mxCell>
        <mxCell id="Fe6q0kBTT0W4DuKIKcfJ-81" value="" style="swimlane;swimlaneHead=0;swimlaneBody=0;fontStyle=0;connectable=0;strokeColor=inherit;fillColor=none;startSize=0;collapsible=0;recursiveResize=0;expand=0;" vertex="1" parent="Fe6q0kBTT0W4DuKIKcfJ-75">
          <mxGeometry x="686" width="106" height="81" as="geometry">
            <mxRectangle width="106" height="81" as="alternateBounds" />
          </mxGeometry>
        </mxCell>
        <mxCell id="Fe6q0kBTT0W4DuKIKcfJ-95" style="swimlane;swimlaneHead=0;swimlaneBody=0;fontStyle=0;connectable=0;strokeColor=inherit;fillColor=none;startSize=0;collapsible=0;recursiveResize=0;expand=0;" vertex="1" parent="Fe6q0kBTT0W4DuKIKcfJ-75">
          <mxGeometry x="792" width="80" height="81" as="geometry">
            <mxRectangle width="80" height="81" as="alternateBounds" />
          </mxGeometry>
        </mxCell>
        <mxCell id="Fe6q0kBTT0W4DuKIKcfJ-120" style="swimlane;swimlaneHead=0;swimlaneBody=0;fontStyle=0;connectable=0;strokeColor=inherit;fillColor=none;startSize=0;collapsible=0;recursiveResize=0;expand=0;" vertex="1" parent="Fe6q0kBTT0W4DuKIKcfJ-75">
          <mxGeometry x="872" width="80" height="81" as="geometry">
            <mxRectangle width="80" height="81" as="alternateBounds" />
          </mxGeometry>
        </mxCell>
      </root>
    </mxGraphModel>
  </diagram>
  <diagram name="adm_usuarios" id="qEuU9uPTYmzNUTvZBYJm">
    <mxGraphModel dx="3566" dy="2272" grid="1" gridSize="10" guides="1" tooltips="1" connect="1" arrows="1" fold="1" page="1" pageScale="1" pageWidth="827" pageHeight="1169" math="0" shadow="0">
      <root>
        <mxCell id="KsXRvWemLDMWPlzr8f6B-0" />
        <mxCell id="KsXRvWemLDMWPlzr8f6B-1" parent="KsXRvWemLDMWPlzr8f6B-0" />
        <mxCell id="KsXRvWemLDMWPlzr8f6B-2" value="" style="group;glass=0;" vertex="1" connectable="0" parent="KsXRvWemLDMWPlzr8f6B-1">
          <mxGeometry x="-1340" y="-250" width="1930" height="1080" as="geometry" />
        </mxCell>
        <mxCell id="KsXRvWemLDMWPlzr8f6B-3" value="" style="rounded=0;whiteSpace=wrap;html=1;" vertex="1" parent="KsXRvWemLDMWPlzr8f6B-2">
          <mxGeometry width="1930" height="1080" as="geometry" />
        </mxCell>
        <mxCell id="KsXRvWemLDMWPlzr8f6B-4" value="" style="rounded=0;whiteSpace=wrap;html=1;fillColor=#FFF1D1;strokeColor=none;" vertex="1" parent="KsXRvWemLDMWPlzr8f6B-2">
          <mxGeometry y="5" width="300" height="1075" as="geometry" />
        </mxCell>
        <mxCell id="KsXRvWemLDMWPlzr8f6B-5" value="" style="ellipse;whiteSpace=wrap;html=1;strokeColor=none;" vertex="1" parent="KsXRvWemLDMWPlzr8f6B-2">
          <mxGeometry x="50" y="75" width="180" height="220" as="geometry" />
        </mxCell>
        <mxCell id="KsXRvWemLDMWPlzr8f6B-6" value="titulo" style="rounded=0;whiteSpace=wrap;html=1;fontStyle=3;fontSize=34;fontColor=default;labelBackgroundColor=none;strokeColor=none;" vertex="1" parent="KsXRvWemLDMWPlzr8f6B-2">
          <mxGeometry x="50" y="325" width="190" height="35" as="geometry" />
        </mxCell>
        <mxCell id="KsXRvWemLDMWPlzr8f6B-7" value="" style="rounded=0;whiteSpace=wrap;html=1;fillColor=#FFF1D1;strokeColor=none;" vertex="1" parent="KsXRvWemLDMWPlzr8f6B-2">
          <mxGeometry x="300" y="5" width="1630" height="60" as="geometry" />
        </mxCell>
        <mxCell id="KsXRvWemLDMWPlzr8f6B-8" value="voltar" style="html=1;shadow=0;dashed=0;shape=mxgraph.bootstrap.rrect;rSize=5;strokeColor=none;strokeWidth=1;fillColor=#FFAB4A;fontColor=#FFFFFF;whiteSpace=wrap;align=center;verticalAlign=middle;spacingLeft=0;fontStyle=0;fontSize=16;spacing=5;" vertex="1" parent="KsXRvWemLDMWPlzr8f6B-2">
          <mxGeometry x="343" y="15" width="170" height="40" as="geometry" />
        </mxCell>
        <mxCell id="KsXRvWemLDMWPlzr8f6B-9" value="sair" style="html=1;shadow=0;dashed=0;shape=mxgraph.bootstrap.rrect;rSize=5;strokeColor=none;strokeWidth=1;fillColor=#DB704F;fontColor=#FFFFFF;whiteSpace=wrap;align=center;verticalAlign=middle;spacingLeft=0;fontStyle=0;fontSize=16;spacing=5;" vertex="1" parent="KsXRvWemLDMWPlzr8f6B-2">
          <mxGeometry x="40" y="1010" width="180" height="40" as="geometry" />
        </mxCell>
        <mxCell id="KsXRvWemLDMWPlzr8f6B-10" value="home" style="html=1;shadow=1;dashed=0;shape=mxgraph.bootstrap.rrect;rSize=5;strokeColor=none;strokeWidth=1;fillColor=#FFE6A1;fontColor=#994C00;whiteSpace=wrap;align=center;verticalAlign=middle;spacingLeft=0;fontStyle=0;fontSize=16;spacing=5;gradientColor=none;" vertex="1" parent="KsXRvWemLDMWPlzr8f6B-2">
          <mxGeometry x="50" y="410" width="180" height="40" as="geometry" />
        </mxCell>
        <mxCell id="KsXRvWemLDMWPlzr8f6B-12" value="obras" style="html=1;shadow=1;dashed=0;shape=mxgraph.bootstrap.rrect;rSize=5;strokeColor=none;strokeWidth=1;fillColor=#FFE6A1;fontColor=#994C00;whiteSpace=wrap;align=center;verticalAlign=middle;spacingLeft=0;fontStyle=0;fontSize=16;spacing=5;gradientColor=none;" vertex="1" parent="KsXRvWemLDMWPlzr8f6B-2">
          <mxGeometry x="50" y="555" width="180" height="40" as="geometry" />
        </mxCell>
        <mxCell id="KsXRvWemLDMWPlzr8f6B-13" value="exposições" style="html=1;shadow=1;dashed=0;shape=mxgraph.bootstrap.rrect;rSize=5;strokeColor=none;strokeWidth=1;fillColor=#FFE6A1;fontColor=#994C00;whiteSpace=wrap;align=center;verticalAlign=middle;spacingLeft=0;fontStyle=0;fontSize=16;spacing=5;gradientColor=none;" vertex="1" parent="KsXRvWemLDMWPlzr8f6B-2">
          <mxGeometry x="50" y="625" width="180" height="40" as="geometry" />
        </mxCell>
        <mxCell id="KsXRvWemLDMWPlzr8f6B-14" value="posts" style="html=1;shadow=1;dashed=0;shape=mxgraph.bootstrap.rrect;rSize=5;strokeColor=none;strokeWidth=1;fillColor=#FFE6A1;fontColor=#994C00;whiteSpace=wrap;align=center;verticalAlign=middle;spacingLeft=0;fontStyle=0;fontSize=16;spacing=5;gradientColor=none;" vertex="1" parent="KsXRvWemLDMWPlzr8f6B-2">
          <mxGeometry x="50" y="695" width="180" height="40" as="geometry" />
        </mxCell>
        <mxCell id="KsXRvWemLDMWPlzr8f6B-15" value="midia" style="html=1;shadow=1;dashed=0;shape=mxgraph.bootstrap.rrect;rSize=5;strokeColor=none;strokeWidth=1;fillColor=#FFE6A1;fontColor=#994C00;whiteSpace=wrap;align=center;verticalAlign=middle;spacingLeft=0;fontStyle=0;fontSize=16;spacing=5;gradientColor=none;" vertex="1" parent="KsXRvWemLDMWPlzr8f6B-2">
          <mxGeometry x="50" y="760" width="180" height="40" as="geometry" />
        </mxCell>
        <mxCell id="KsXRvWemLDMWPlzr8f6B-16" value="configruações" style="html=1;shadow=1;dashed=0;shape=mxgraph.bootstrap.rrect;rSize=5;strokeColor=none;strokeWidth=1;fillColor=#FFE6A1;fontColor=#994C00;whiteSpace=wrap;align=center;verticalAlign=middle;spacingLeft=0;fontStyle=0;fontSize=16;spacing=5;gradientColor=none;" vertex="1" parent="KsXRvWemLDMWPlzr8f6B-2">
          <mxGeometry x="50" y="825" width="180" height="40" as="geometry" />
        </mxCell>
        <mxCell id="KsXRvWemLDMWPlzr8f6B-17" value="avançar" style="html=1;shadow=0;dashed=0;shape=mxgraph.bootstrap.rrect;rSize=5;strokeColor=none;strokeWidth=1;fillColor=#FFAB4A;fontColor=#FFFFFF;whiteSpace=wrap;align=center;verticalAlign=middle;spacingLeft=0;fontStyle=0;fontSize=16;spacing=5;" vertex="1" parent="KsXRvWemLDMWPlzr8f6B-2">
          <mxGeometry x="1720" y="15" width="170" height="40" as="geometry" />
        </mxCell>
        <mxCell id="KsXRvWemLDMWPlzr8f6B-18" value="usuarios" style="html=1;shadow=1;dashed=0;shape=mxgraph.bootstrap.rrect;rSize=5;strokeColor=#6F0000;strokeWidth=1;fillColor=#a20025;fontColor=#ffffff;whiteSpace=wrap;align=center;verticalAlign=middle;spacingLeft=0;fontStyle=0;fontSize=16;spacing=5;" vertex="1" parent="KsXRvWemLDMWPlzr8f6B-2">
          <mxGeometry x="50" y="480" width="180" height="40" as="geometry" />
        </mxCell>
        <mxCell id="cyvNYMUhqIzqBXV5lW4o-149" value="LISTA DE USUARIOS" style="shape=table;startSize=30;container=1;collapsible=0;childLayout=tableLayout;strokeColor=default;fontSize=16;" vertex="1" parent="KsXRvWemLDMWPlzr8f6B-2">
          <mxGeometry x="400" y="360" width="1501" height="390" as="geometry" />
        </mxCell>
        <mxCell id="cyvNYMUhqIzqBXV5lW4o-150" value="" style="shape=tableRow;horizontal=0;startSize=0;swimlaneHead=0;swimlaneBody=0;strokeColor=inherit;top=0;left=0;bottom=0;right=0;collapsible=0;dropTarget=0;fillColor=none;points=[[0,0.5],[1,0.5]];portConstraint=eastwest;fontSize=16;" vertex="1" parent="cyvNYMUhqIzqBXV5lW4o-149">
          <mxGeometry y="30" width="1501" height="120" as="geometry" />
        </mxCell>
        <mxCell id="cyvNYMUhqIzqBXV5lW4o-151" value="NOME" style="shape=partialRectangle;html=1;whiteSpace=wrap;connectable=0;strokeColor=inherit;overflow=hidden;fillColor=none;top=0;left=0;bottom=0;right=0;pointerEvents=1;fontSize=16;" vertex="1" parent="cyvNYMUhqIzqBXV5lW4o-150">
          <mxGeometry width="206" height="120" as="geometry">
            <mxRectangle width="206" height="120" as="alternateBounds" />
          </mxGeometry>
        </mxCell>
        <mxCell id="cyvNYMUhqIzqBXV5lW4o-152" value="EMAIL" style="shape=partialRectangle;html=1;whiteSpace=wrap;connectable=0;strokeColor=inherit;overflow=hidden;fillColor=none;top=0;left=0;bottom=0;right=0;pointerEvents=1;fontSize=16;" vertex="1" parent="cyvNYMUhqIzqBXV5lW4o-150">
          <mxGeometry x="206" width="413" height="120" as="geometry">
            <mxRectangle width="413" height="120" as="alternateBounds" />
          </mxGeometry>
        </mxCell>
        <mxCell id="cyvNYMUhqIzqBXV5lW4o-153" value="ACESSO" style="shape=partialRectangle;html=1;whiteSpace=wrap;connectable=0;strokeColor=inherit;overflow=hidden;fillColor=none;top=0;left=0;bottom=0;right=0;pointerEvents=1;fontSize=16;" vertex="1" parent="cyvNYMUhqIzqBXV5lW4o-150">
          <mxGeometry x="619" width="441" height="120" as="geometry">
            <mxRectangle width="441" height="120" as="alternateBounds" />
          </mxGeometry>
        </mxCell>
        <mxCell id="cyvNYMUhqIzqBXV5lW4o-162" value="ULTIMO ACESSO" style="shape=partialRectangle;html=1;whiteSpace=wrap;connectable=0;strokeColor=inherit;overflow=hidden;fillColor=none;top=0;left=0;bottom=0;right=0;pointerEvents=1;fontSize=16;" vertex="1" parent="cyvNYMUhqIzqBXV5lW4o-150">
          <mxGeometry x="1060" width="441" height="120" as="geometry">
            <mxRectangle width="441" height="120" as="alternateBounds" />
          </mxGeometry>
        </mxCell>
        <mxCell id="cyvNYMUhqIzqBXV5lW4o-154" value="" style="shape=tableRow;horizontal=0;startSize=0;swimlaneHead=0;swimlaneBody=0;strokeColor=inherit;top=0;left=0;bottom=0;right=0;collapsible=0;dropTarget=0;fillColor=none;points=[[0,0.5],[1,0.5]];portConstraint=eastwest;fontSize=16;" vertex="1" parent="cyvNYMUhqIzqBXV5lW4o-149">
          <mxGeometry y="150" width="1501" height="120" as="geometry" />
        </mxCell>
        <mxCell id="cyvNYMUhqIzqBXV5lW4o-155" value="" style="shape=partialRectangle;html=1;whiteSpace=wrap;connectable=0;strokeColor=inherit;overflow=hidden;fillColor=none;top=0;left=0;bottom=0;right=0;pointerEvents=1;fontSize=16;" vertex="1" parent="cyvNYMUhqIzqBXV5lW4o-154">
          <mxGeometry width="206" height="120" as="geometry">
            <mxRectangle width="206" height="120" as="alternateBounds" />
          </mxGeometry>
        </mxCell>
        <mxCell id="cyvNYMUhqIzqBXV5lW4o-156" value="" style="shape=partialRectangle;html=1;whiteSpace=wrap;connectable=0;strokeColor=inherit;overflow=hidden;fillColor=none;top=0;left=0;bottom=0;right=0;pointerEvents=1;fontSize=16;" vertex="1" parent="cyvNYMUhqIzqBXV5lW4o-154">
          <mxGeometry x="206" width="413" height="120" as="geometry">
            <mxRectangle width="413" height="120" as="alternateBounds" />
          </mxGeometry>
        </mxCell>
        <mxCell id="cyvNYMUhqIzqBXV5lW4o-157" value="" style="shape=partialRectangle;html=1;whiteSpace=wrap;connectable=0;strokeColor=inherit;overflow=hidden;fillColor=none;top=0;left=0;bottom=0;right=0;pointerEvents=1;fontSize=16;" vertex="1" parent="cyvNYMUhqIzqBXV5lW4o-154">
          <mxGeometry x="619" width="441" height="120" as="geometry">
            <mxRectangle width="441" height="120" as="alternateBounds" />
          </mxGeometry>
        </mxCell>
        <mxCell id="cyvNYMUhqIzqBXV5lW4o-163" style="shape=partialRectangle;html=1;whiteSpace=wrap;connectable=0;strokeColor=inherit;overflow=hidden;fillColor=none;top=0;left=0;bottom=0;right=0;pointerEvents=1;fontSize=16;" vertex="1" parent="cyvNYMUhqIzqBXV5lW4o-154">
          <mxGeometry x="1060" width="441" height="120" as="geometry">
            <mxRectangle width="441" height="120" as="alternateBounds" />
          </mxGeometry>
        </mxCell>
        <mxCell id="cyvNYMUhqIzqBXV5lW4o-158" value="" style="shape=tableRow;horizontal=0;startSize=0;swimlaneHead=0;swimlaneBody=0;strokeColor=inherit;top=0;left=0;bottom=0;right=0;collapsible=0;dropTarget=0;fillColor=none;points=[[0,0.5],[1,0.5]];portConstraint=eastwest;fontSize=16;" vertex="1" parent="cyvNYMUhqIzqBXV5lW4o-149">
          <mxGeometry y="270" width="1501" height="120" as="geometry" />
        </mxCell>
        <mxCell id="cyvNYMUhqIzqBXV5lW4o-159" value="" style="shape=partialRectangle;html=1;whiteSpace=wrap;connectable=0;strokeColor=inherit;overflow=hidden;fillColor=none;top=0;left=0;bottom=0;right=0;pointerEvents=1;fontSize=16;" vertex="1" parent="cyvNYMUhqIzqBXV5lW4o-158">
          <mxGeometry width="206" height="120" as="geometry">
            <mxRectangle width="206" height="120" as="alternateBounds" />
          </mxGeometry>
        </mxCell>
        <mxCell id="cyvNYMUhqIzqBXV5lW4o-160" value="" style="shape=partialRectangle;html=1;whiteSpace=wrap;connectable=0;strokeColor=inherit;overflow=hidden;fillColor=none;top=0;left=0;bottom=0;right=0;pointerEvents=1;fontSize=16;" vertex="1" parent="cyvNYMUhqIzqBXV5lW4o-158">
          <mxGeometry x="206" width="413" height="120" as="geometry">
            <mxRectangle width="413" height="120" as="alternateBounds" />
          </mxGeometry>
        </mxCell>
        <mxCell id="cyvNYMUhqIzqBXV5lW4o-161" value="" style="shape=partialRectangle;html=1;whiteSpace=wrap;connectable=0;strokeColor=inherit;overflow=hidden;fillColor=none;top=0;left=0;bottom=0;right=0;pointerEvents=1;fontSize=16;" vertex="1" parent="cyvNYMUhqIzqBXV5lW4o-158">
          <mxGeometry x="619" width="441" height="120" as="geometry">
            <mxRectangle width="441" height="120" as="alternateBounds" />
          </mxGeometry>
        </mxCell>
        <mxCell id="cyvNYMUhqIzqBXV5lW4o-164" style="shape=partialRectangle;html=1;whiteSpace=wrap;connectable=0;strokeColor=inherit;overflow=hidden;fillColor=none;top=0;left=0;bottom=0;right=0;pointerEvents=1;fontSize=16;" vertex="1" parent="cyvNYMUhqIzqBXV5lW4o-158">
          <mxGeometry x="1060" width="441" height="120" as="geometry">
            <mxRectangle width="441" height="120" as="alternateBounds" />
          </mxGeometry>
        </mxCell>
      </root>
    </mxGraphModel>
  </diagram>
  <diagram name="adm_home" id="Clai_5ietz5hc7br9PGA">
    <mxGraphModel dx="3818.65" dy="2031.85" grid="1" gridSize="10" guides="1" tooltips="1" connect="1" arrows="1" fold="1" page="1" pageScale="0.65" pageWidth="827" pageHeight="1169" math="0" shadow="0">
      <root>
        <mxCell id="YZ42wsFKHCyBL0GVP20p-0" />
        <mxCell id="YZ42wsFKHCyBL0GVP20p-1" parent="YZ42wsFKHCyBL0GVP20p-0" />
        <mxCell id="YZ42wsFKHCyBL0GVP20p-2" value="" style="group;fontColor=#994C00;" vertex="1" connectable="0" parent="YZ42wsFKHCyBL0GVP20p-1">
          <mxGeometry x="-1330" y="-260" width="1930" height="1080" as="geometry" />
        </mxCell>
        <mxCell id="YZ42wsFKHCyBL0GVP20p-3" value="" style="rounded=0;whiteSpace=wrap;html=1;" vertex="1" parent="YZ42wsFKHCyBL0GVP20p-2">
          <mxGeometry width="1930" height="1080" as="geometry" />
        </mxCell>
        <mxCell id="YZ42wsFKHCyBL0GVP20p-4" value="" style="rounded=0;whiteSpace=wrap;html=1;fillColor=#FFF1D1;strokeColor=none;" vertex="1" parent="YZ42wsFKHCyBL0GVP20p-2">
          <mxGeometry y="5" width="300" height="1075" as="geometry" />
        </mxCell>
        <mxCell id="YZ42wsFKHCyBL0GVP20p-5" value="" style="ellipse;whiteSpace=wrap;html=1;strokeColor=none;" vertex="1" parent="YZ42wsFKHCyBL0GVP20p-2">
          <mxGeometry x="50" y="75" width="180" height="220" as="geometry" />
        </mxCell>
        <mxCell id="YZ42wsFKHCyBL0GVP20p-6" value="titulo" style="rounded=0;whiteSpace=wrap;html=1;fontStyle=3;fontSize=34;fontColor=default;labelBackgroundColor=none;strokeColor=none;" vertex="1" parent="YZ42wsFKHCyBL0GVP20p-2">
          <mxGeometry x="50" y="325" width="190" height="35" as="geometry" />
        </mxCell>
        <mxCell id="YZ42wsFKHCyBL0GVP20p-7" value="" style="rounded=0;whiteSpace=wrap;html=1;fillColor=#FFF1D1;strokeColor=none;" vertex="1" parent="YZ42wsFKHCyBL0GVP20p-2">
          <mxGeometry x="300" y="5" width="1630" height="60" as="geometry" />
        </mxCell>
        <mxCell id="YZ42wsFKHCyBL0GVP20p-8" value="voltar" style="html=1;shadow=0;dashed=0;shape=mxgraph.bootstrap.rrect;rSize=5;strokeColor=none;strokeWidth=1;fillColor=#FFAB4A;fontColor=#FFFFFF;whiteSpace=wrap;align=center;verticalAlign=middle;spacingLeft=0;fontStyle=0;fontSize=16;spacing=5;" vertex="1" parent="YZ42wsFKHCyBL0GVP20p-2">
          <mxGeometry x="343" y="15" width="170" height="40" as="geometry" />
        </mxCell>
        <mxCell id="YZ42wsFKHCyBL0GVP20p-9" value="sair" style="html=1;shadow=0;dashed=0;shape=mxgraph.bootstrap.rrect;rSize=5;strokeColor=none;strokeWidth=1;fillColor=#DB704F;fontColor=#FFFFFF;whiteSpace=wrap;align=center;verticalAlign=middle;spacingLeft=0;fontStyle=0;fontSize=16;spacing=5;" vertex="1" parent="YZ42wsFKHCyBL0GVP20p-2">
          <mxGeometry x="40" y="1010" width="180" height="40" as="geometry" />
        </mxCell>
        <mxCell id="YZ42wsFKHCyBL0GVP20p-11" value="usuarios" style="html=1;shadow=1;dashed=0;shape=mxgraph.bootstrap.rrect;rSize=5;strokeColor=none;strokeWidth=1;fillColor=#FFE6A1;fontColor=#994C00;whiteSpace=wrap;align=center;verticalAlign=middle;spacingLeft=0;fontStyle=0;fontSize=16;spacing=5;gradientColor=none;" vertex="1" parent="YZ42wsFKHCyBL0GVP20p-2">
          <mxGeometry x="50" y="475" width="180" height="40" as="geometry" />
        </mxCell>
        <mxCell id="YZ42wsFKHCyBL0GVP20p-12" value="obras" style="html=1;shadow=1;dashed=0;shape=mxgraph.bootstrap.rrect;rSize=5;strokeColor=none;strokeWidth=1;fillColor=#FFE6A1;fontColor=#994C00;whiteSpace=wrap;align=center;verticalAlign=middle;spacingLeft=0;fontStyle=0;fontSize=16;spacing=5;gradientColor=none;" vertex="1" parent="YZ42wsFKHCyBL0GVP20p-2">
          <mxGeometry x="50" y="555" width="180" height="40" as="geometry" />
        </mxCell>
        <mxCell id="YZ42wsFKHCyBL0GVP20p-13" value="exposições" style="html=1;shadow=1;dashed=0;shape=mxgraph.bootstrap.rrect;rSize=5;strokeColor=none;strokeWidth=1;fillColor=#FFE6A1;fontColor=#994C00;whiteSpace=wrap;align=center;verticalAlign=middle;spacingLeft=0;fontStyle=0;fontSize=16;spacing=5;gradientColor=none;" vertex="1" parent="YZ42wsFKHCyBL0GVP20p-2">
          <mxGeometry x="50" y="625" width="180" height="40" as="geometry" />
        </mxCell>
        <mxCell id="YZ42wsFKHCyBL0GVP20p-14" value="posts" style="html=1;shadow=1;dashed=0;shape=mxgraph.bootstrap.rrect;rSize=5;strokeColor=none;strokeWidth=1;fillColor=#FFE6A1;fontColor=#994C00;whiteSpace=wrap;align=center;verticalAlign=middle;spacingLeft=0;fontStyle=0;fontSize=16;spacing=5;gradientColor=none;" vertex="1" parent="YZ42wsFKHCyBL0GVP20p-2">
          <mxGeometry x="50" y="695" width="180" height="40" as="geometry" />
        </mxCell>
        <mxCell id="YZ42wsFKHCyBL0GVP20p-15" value="midia" style="html=1;shadow=1;dashed=0;shape=mxgraph.bootstrap.rrect;rSize=5;strokeColor=none;strokeWidth=1;fillColor=#FFE6A1;fontColor=#994C00;whiteSpace=wrap;align=center;verticalAlign=middle;spacingLeft=0;fontStyle=0;fontSize=16;spacing=5;gradientColor=none;" vertex="1" parent="YZ42wsFKHCyBL0GVP20p-2">
          <mxGeometry x="50" y="760" width="180" height="40" as="geometry" />
        </mxCell>
        <mxCell id="YZ42wsFKHCyBL0GVP20p-16" value="configruações" style="html=1;shadow=1;dashed=0;shape=mxgraph.bootstrap.rrect;rSize=5;strokeColor=none;strokeWidth=1;fillColor=#FFE6A1;fontColor=#994C00;whiteSpace=wrap;align=center;verticalAlign=middle;spacingLeft=0;fontStyle=0;fontSize=16;spacing=5;gradientColor=none;" vertex="1" parent="YZ42wsFKHCyBL0GVP20p-2">
          <mxGeometry x="50" y="825" width="180" height="40" as="geometry" />
        </mxCell>
        <mxCell id="YZ42wsFKHCyBL0GVP20p-17" value="avançar" style="html=1;shadow=0;dashed=0;shape=mxgraph.bootstrap.rrect;rSize=5;strokeColor=none;strokeWidth=1;fillColor=#FFAB4A;fontColor=#FFFFFF;whiteSpace=wrap;align=center;verticalAlign=middle;spacingLeft=0;fontStyle=0;fontSize=16;spacing=5;" vertex="1" parent="YZ42wsFKHCyBL0GVP20p-2">
          <mxGeometry x="1720" y="15" width="170" height="40" as="geometry" />
        </mxCell>
        <mxCell id="YZ42wsFKHCyBL0GVP20p-18" value="home" style="html=1;shadow=1;dashed=0;shape=mxgraph.bootstrap.rrect;rSize=5;strokeColor=#6F0000;strokeWidth=1;fillColor=#a20025;fontColor=#ffffff;whiteSpace=wrap;align=center;verticalAlign=middle;spacingLeft=0;fontStyle=0;fontSize=16;spacing=5;" vertex="1" parent="YZ42wsFKHCyBL0GVP20p-2">
          <mxGeometry x="50" y="400" width="180" height="40" as="geometry" />
        </mxCell>
        <mxCell id="amkzo6XRs1WTXylGR64x-0" value="Info" style="html=1;shadow=0;dashed=0;shape=mxgraph.bootstrap.rrect;rSize=5;strokeColor=none;strokeWidth=1;fillColor=#FFF0C5;fontColor=#994C00;whiteSpace=wrap;align=left;verticalAlign=middle;spacingLeft=0;fontStyle=1;fontSize=14;spacing=5;" vertex="1" parent="YZ42wsFKHCyBL0GVP20p-2">
          <mxGeometry x="450" y="180" width="410" height="120" as="geometry" />
        </mxCell>
        <mxCell id="Xrm7cv272uDEmkYOUEVT-0" value="data&lt;div style=&quot;text-align: left;&quot;&gt;euro&lt;/div&gt;&lt;div&gt;dolar&lt;/div&gt;" style="html=1;shadow=0;dashed=0;shape=mxgraph.bootstrap.rrect;rSize=5;strokeColor=#2D3338;html=1;whiteSpace=wrap;fillColor=#FFF0C5;fontColor=#994C00;verticalAlign=middle;align=center;spacing=20;fontSize=60;" vertex="1" parent="YZ42wsFKHCyBL0GVP20p-2">
          <mxGeometry x="1071.23" y="110" width="800" height="280" as="geometry" />
        </mxCell>
        <mxCell id="Xrm7cv272uDEmkYOUEVT-2" value="&lt;span style=&quot;font-size: 20px;&quot;&gt;&lt;b&gt;xyz visitantes neste mes&lt;/b&gt;&lt;/span&gt;" style="html=1;shadow=0;dashed=0;shape=mxgraph.bootstrap.rrect;rSize=5;strokeColor=#BA2239;html=1;whiteSpace=wrap;fillColor=#DB2843;fontColor=#ffffff;verticalAlign=bottom;align=left;spacing=20;spacingBottom=0;fontSize=14;" vertex="1" parent="YZ42wsFKHCyBL0GVP20p-2">
          <mxGeometry x="450" y="555" width="420" height="180" as="geometry" />
        </mxCell>
        <mxCell id="Xrm7cv272uDEmkYOUEVT-3" value="Visitas" style="html=1;shadow=0;dashed=0;shape=mxgraph.bootstrap.topButton;rSize=5;perimeter=none;whiteSpace=wrap;fillColor=#D42741;strokeColor=#BA2239;fontColor=#ffffff;resizeWidth=1;fontSize=18;align=left;spacing=20;" vertex="1" parent="Xrm7cv272uDEmkYOUEVT-2">
          <mxGeometry width="419.99999999999994" height="50" relative="1" as="geometry" />
        </mxCell>
      </root>
    </mxGraphModel>
  </diagram>
</mxfile>
